<?xml version="1.0" encoding="iso-8859-1"?>
<!-- Generator: Adobe Illustrator 17.0.0, SVG Export Plug-In . SVG Version: 6.00 Build 0)  -->
<!DOCTYPE svg PUBLIC "-//W3C//DTD SVG 1.1//EN" "http://www.w3.org/Graphics/SVG/1.1/DTD/svg11.dtd">
<svg version="1.1" id="Layer_1" xmlns="http://www.w3.org/2000/svg" xmlns:xlink="http://www.w3.org/1999/xlink" x="0px" y="0px"
	 width="54.005px" height="54.015px" viewBox="0 0 54.005 54.015" style="enable-background:new 0 0 54.005 54.015;"
	 xml:space="preserve">
<path style="fill:#B3B3B3;" d="M52.248,43.772L39.224,30.749c-0.281-0.281-0.585-0.524-0.903-0.737
	c4.132-7.713,2.957-17.543-3.542-24.042C30.93,2.12,25.812,0,20.369,0C14.926,0,9.808,2.12,5.959,5.969
	c-7.946,7.945-7.946,20.874-0.001,28.819c3.849,3.849,8.966,5.969,14.41,5.969c3.421,0,6.711-0.839,9.641-2.417
	c0.212,0.313,0.451,0.615,0.729,0.893l13.023,13.024c1.172,1.171,2.707,1.757,4.243,1.757c1.535,0,3.071-0.586,4.243-1.757
	C54.591,49.915,54.591,46.116,52.248,43.772z M10.202,30.546c-5.606-5.607-5.606-14.729,0-20.335C12.917,7.496,16.528,6,20.369,6
	c3.84,0,7.451,1.496,10.167,4.211c5.606,5.606,5.606,14.728,0.001,20.335c-2.716,2.716-6.327,4.211-10.168,4.211
	C16.528,34.758,12.917,33.262,10.202,30.546z"/>
</svg>
