<?xml version="1.0" encoding="iso-8859-1"?>
<!-- Generator: Adobe Illustrator 17.0.0, SVG Export Plug-In . SVG Version: 6.00 Build 0)  -->
<!DOCTYPE svg PUBLIC "-//W3C//DTD SVG 1.1//EN" "http://www.w3.org/Graphics/SVG/1.1/DTD/svg11.dtd">
<svg version="1.1" id="Layer_1" xmlns="http://www.w3.org/2000/svg" xmlns:xlink="http://www.w3.org/1999/xlink" x="0px" y="0px"
	 width="69.844px" height="69.866px" viewBox="0 0 69.844 69.866" style="enable-background:new 0 0 69.844 69.866;"
	 xml:space="preserve">
<g>
	<path style="fill:#FFFFFF;stroke:#FDFDFD;stroke-miterlimit:10;" d="M59.259,10.586C52.755,4.082,44.109,0.5,34.911,0.5
		c-9.198,0-17.844,3.582-24.348,10.086C-0.622,21.771-2.48,38.796,4.973,51.931l0.522-1.463l0.548-1.543
		c-5.781-11.954-3.726-26.775,6.18-36.68c6.06-6.062,14.117-9.398,22.688-9.398c8.569,0,16.629,3.336,22.689,9.398
		c6.061,6.06,9.397,14.117,9.397,22.688c0,8.57-3.336,16.628-9.397,22.688c-6.06,6.061-14.117,9.398-22.689,9.398
		c-4.95,0-9.727-1.121-14.049-3.229l-1.524,0.537l-1.48,0.523c5.138,2.939,10.971,4.514,17.053,4.514
		c9.198,0,17.844-3.582,24.348-10.086c6.504-6.502,10.085-15.149,10.085-24.347C69.344,25.736,65.762,17.091,59.259,10.586z"/>
	<path style="fill:#FFFFFF;stroke:#FDFDFD;stroke-miterlimit:10;" d="M14.066,45.686c0.119,0.23,0.225,0.469,0.354,0.696
		l-3.503,9.848l-0.446,1.253l-0.439,1.238l-0.584,1.636l0.022-0.007L9.46,60.376l1.643-0.582l1.242-0.438l1.253-0.443l9.867-3.487
		c0.227,0.129,0.462,0.238,0.694,0.36c2.598,1.339,5.428,2.179,8.341,2.479c0.8,0.083,1.602,0.137,2.411,0.137
		c6.269,0,12.162-2.441,16.594-6.875c4.433-4.432,6.873-10.324,6.873-16.593c0-6.269-2.44-12.161-6.873-16.594
		c-4.433-4.433-10.325-6.873-16.594-6.873c-6.268,0-12.16,2.441-16.592,6.873c-5.121,5.119-7.46,12.13-6.762,18.98
		C11.847,40.19,12.689,43.023,14.066,45.686z M34.91,13.814c5.642,0,10.946,2.196,14.936,6.186c3.988,3.99,6.185,9.294,6.185,14.935
		c0,5.641-2.197,10.944-6.185,14.934c-3.99,3.989-9.294,6.186-14.936,6.186c-1.106,0-2.203-0.096-3.286-0.265
		C29,55.376,26.47,54.484,24.179,53.13l-0.472-0.277l-0.52,0.185l-0.521,0.183l-9.345,3.303l0.007-0.026l3.307-9.297l0.19-0.531
		l0.179-0.506l-0.279-0.474c-1.396-2.355-2.269-4.896-2.674-7.48c-1.022-6.516,1.035-13.319,5.924-18.209
		C23.965,16.009,29.269,13.814,34.91,13.814z"/>
</g>
</svg>
