<?xml version="1.0" encoding="utf-8"?>
<!-- Generator: Adobe Illustrator 16.0.0, SVG Export Plug-In . SVG Version: 6.00 Build 0)  -->
<!DOCTYPE svg PUBLIC "-//W3C//DTD SVG 1.1//EN" "http://www.w3.org/Graphics/SVG/1.1/DTD/svg11.dtd">
<svg version="1.1" id="Layer_1" xmlns="http://www.w3.org/2000/svg" xmlns:xlink="http://www.w3.org/1999/xlink" x="0px" y="0px"
	 width="65px" height="65.156px" viewBox="-0.5 117.422 65 65.156" enable-background="new -0.5 117.422 65 65.156"
	 xml:space="preserve">
<g>
	<rect x="23.916" y="142.641" fill="#948F93" stroke="#929292" stroke-miterlimit="10" width="14.646" height="1.966"/>
	<rect x="23.916" y="151.924" fill="#948F93" stroke="#929292" stroke-miterlimit="10" width="20.541" height="1.967"/>
	<rect x="23.916" y="161.212" fill="#948F93" stroke="#929292" stroke-miterlimit="10" width="20.541" height="1.966"/>
	<path fill="#948F93" stroke="#929292" stroke-miterlimit="10" d="M13.526,141.545c-0.551,0.532-0.856,1.292-0.856,2.072
		c0,0.799,0.305,1.542,0.856,2.094c0.571,0.552,1.313,0.856,2.093,0.856s1.523-0.305,2.074-0.856
		c0.552-0.552,0.875-1.295,0.875-2.094c0-0.781-0.324-1.541-0.875-2.072C16.589,140.44,14.629,140.44,13.526,141.545z"/>
	<path fill="#948F93" stroke="#929292" stroke-miterlimit="10" d="M13.526,150.828c-0.551,0.533-0.856,1.295-0.856,2.072
		c0,0.801,0.305,1.543,0.856,2.094c0.571,0.553,1.313,0.856,2.093,0.856s1.523-0.305,2.074-0.856c0.57-0.57,0.875-1.312,0.875-2.094
		c0-0.777-0.324-1.521-0.875-2.072C16.607,149.724,14.629,149.724,13.526,150.828z"/>
	<path fill="#948F93" stroke="#929292" stroke-miterlimit="10" d="M13.526,160.111c-0.551,0.552-0.856,1.314-0.856,2.075
		c0,0.8,0.305,1.541,0.856,2.093c0.571,0.552,1.313,0.855,2.093,0.855s1.523-0.304,2.074-0.855c0.57-0.553,0.875-1.293,0.875-2.093
		c0-0.761-0.324-1.523-0.875-2.075C16.589,159.008,14.629,159.008,13.526,160.111z"/>
	<path fill="#948F93" stroke="#929292" stroke-miterlimit="10" d="M64,133.389c0-8.529-6.938-15.467-15.468-15.467
		c-5.286,0-9.957,2.668-12.748,6.726c0.069-0.101,0.128-0.208,0.199-0.306c-2.159-0.51-4.408-0.788-6.721-0.788
		C13.127,123.554,0,136.681,0,152.815c0,16.136,13.127,29.263,29.263,29.263c16.135,0,29.262-13.127,29.262-29.263
		c0-2.396-0.295-4.724-0.842-6.954c-0.115,0.085-0.241,0.157-0.359,0.239C61.352,143.306,64,138.653,64,133.389z M29.263,179.271
		c-14.587,0-26.456-11.868-26.456-26.456c0-14.587,11.869-26.454,26.456-26.454c1.791,0,3.541,0.181,5.233,0.522
		c0.093-0.201,0.205-0.39,0.307-0.585c-1.104,2.127-1.737,4.535-1.737,7.091c0,8.53,6.938,15.469,15.467,15.469
		c2.559,0,4.97-0.635,7.097-1.74c-0.16,0.083-0.313,0.177-0.477,0.255c0.369,1.758,0.566,3.578,0.566,5.443
		C55.719,167.403,43.851,179.271,29.263,179.271z M35.578,124.966c-0.197,0.302-0.387,0.608-0.562,0.924
		C35.191,125.574,35.381,125.268,35.578,124.966z M56.086,146.874c0.295-0.165,0.582-0.342,0.863-0.525
		C56.668,146.532,56.381,146.709,56.086,146.874z M48.532,146.18c-7.052,0-12.789-5.738-12.789-12.791
		c0-7.051,5.737-12.788,12.789-12.788s12.788,5.737,12.788,12.788C61.321,140.442,55.584,146.18,48.532,146.18z"/>
	<polygon fill="#948F93" stroke="#929292" stroke-width="2" stroke-miterlimit="10" points="54.041,127.7 48.812,132.929 
		43.582,127.7 43.029,128.253 48.26,133.482 43.029,138.712 43.582,139.265 48.812,134.036 54.041,139.265 54.596,138.712 
		49.365,133.482 54.596,128.253 	"/>
</g>
</svg>
