<?xml version="1.0" encoding="iso-8859-1"?>
<!-- Generator: Adobe Illustrator 17.0.0, SVG Export Plug-In . SVG Version: 6.00 Build 0)  -->
<!DOCTYPE svg PUBLIC "-//W3C//DTD SVG 1.1//EN" "http://www.w3.org/Graphics/SVG/1.1/DTD/svg11.dtd">
<svg version="1.1" id="Icons" xmlns="http://www.w3.org/2000/svg" xmlns:xlink="http://www.w3.org/1999/xlink" x="0px" y="0px"
	 width="90px" height="62px" viewBox="0 0 90 62" style="enable-background:new 0 0 90 62;" xml:space="preserve">
<path id="Twitter__x28_alt_x29__1_" style="fill:#F7EEF3;" d="M79.805,27.565c5.055-0.417,8.482-2.715,9.803-5.833
	c-1.824,1.12-7.484,2.341-10.609,1.178c-0.154-0.734-0.324-1.432-0.492-2.062C76.123,12.102,67.969,5.056,59.424,5.906
	c0.691-0.279,1.393-0.539,2.092-0.773c0.939-0.337,6.459-1.235,5.59-3.183c-0.734-1.713-7.475,1.295-8.744,1.688
	c1.676-0.63,4.447-1.714,4.744-3.64c-2.568,0.352-5.088,1.566-7.035,3.331c0.703-0.757,1.236-1.679,1.35-2.672
	c-6.85,4.374-10.85,13.193-14.086,21.749c-2.543-2.463-4.795-4.403-6.816-5.481c-5.67-3.041-12.449-6.213-23.092-10.164
	c-0.326,3.522,1.742,8.203,7.699,11.316c-1.291-0.173-3.65,0.213-5.539,0.665c0.769,4.034,3.279,7.357,10.08,8.964
	c-3.108,0.205-4.713,0.912-6.168,2.436c1.414,2.805,4.867,6.107,11.078,5.429c-6.904,2.977-2.814,8.49,2.805,7.667
	C23.795,53.143,8.68,52.416,0,44.134c22.662,30.879,71.922,18.262,79.262-11.481c5.5,0.047,8.734-1.905,10.738-4.057
	C86.832,29.134,82.24,28.578,79.805,27.565z"/>
</svg>
