<?xml version="1.0" encoding="utf-8"?>
<!-- Generator: Adobe Illustrator 16.0.0, SVG Export Plug-In . SVG Version: 6.00 Build 0)  -->
<!DOCTYPE svg PUBLIC "-//W3C//DTD SVG 1.1//EN" "http://www.w3.org/Graphics/SVG/1.1/DTD/svg11.dtd">
<svg version="1.1" id="Layer_1" xmlns="http://www.w3.org/2000/svg" xmlns:xlink="http://www.w3.org/1999/xlink" x="0px" y="0px"
	 width="69.591px" height="69.589px" viewBox="0 0 69.591 69.589" enable-background="new 0 0 69.591 69.589" xml:space="preserve">
<g>
	<path fill="#FFFFFF" stroke="#FDFDFD" stroke-miterlimit="10" d="M34.795,0.5C15.884,0.5,0.5,15.886,0.5,34.794
		c0,18.909,15.384,34.295,34.295,34.295c18.91,0,34.296-15.386,34.296-34.295C69.091,15.886,53.705,0.5,34.795,0.5z M34.795,66.752
		c-17.621,0-31.958-14.336-31.958-31.958c0-17.621,14.337-31.956,31.958-31.956c17.622,0,31.959,14.335,31.959,31.956
		C66.754,52.416,52.417,66.752,34.795,66.752z"/>
	<path fill="#FFFFFF" stroke="#FDFDFD" stroke-miterlimit="10" d="M34.795,11.422c-12.888,0-23.373,10.485-23.373,23.372
		c0,12.89,10.485,23.377,23.373,23.377c12.889,0,23.375-10.487,23.375-23.377C58.17,21.907,47.684,11.422,34.795,11.422z
		 M34.795,55.834c-11.6,0-21.036-9.438-21.036-21.04c0-11.599,9.437-21.033,21.036-21.033s21.037,9.435,21.037,21.033
		C55.832,46.396,46.395,55.834,34.795,55.834z"/>
	<path fill="#FFFFFF" stroke="#FDFDFD" stroke-miterlimit="10" d="M34.795,22.523c-6.767,0-12.271,5.505-12.271,12.271
		c0,6.767,5.504,12.271,12.271,12.271s12.271-5.505,12.271-12.271C47.066,28.028,41.562,22.523,34.795,22.523z M34.795,44.729
		c-5.477,0-9.934-4.457-9.934-9.935c0-5.477,4.457-9.933,9.934-9.933c5.478,0,9.934,4.456,9.934,9.933
		C44.729,40.271,40.272,44.729,34.795,44.729z"/>
</g>
</svg>
