<?xml version="1.0" encoding="iso-8859-1"?>
<!-- Generator: Adobe Illustrator 17.0.0, SVG Export Plug-In . SVG Version: 6.00 Build 0)  -->
<!DOCTYPE svg PUBLIC "-//W3C//DTD SVG 1.1//EN" "http://www.w3.org/Graphics/SVG/1.1/DTD/svg11.dtd">
<svg version="1.1" id="Layer_1" xmlns="http://www.w3.org/2000/svg" xmlns:xlink="http://www.w3.org/1999/xlink" x="0px" y="0px"
	 width="68.591px" height="68.589px" viewBox="0 0 68.591 68.589" style="enable-background:new 0 0 68.591 68.589;"
	 xml:space="preserve">
<g>
	<path style="fill:#404040;" d="M34.295,0C15.384,0,0,15.386,0,34.294c0,18.909,15.384,34.295,34.295,34.295
		c18.91,0,34.296-15.386,34.296-34.295C68.591,15.386,53.205,0,34.295,0z M34.295,66.252c-17.621,0-31.958-14.336-31.958-31.958
		c0-17.621,14.337-31.956,31.958-31.956c17.622,0,31.959,14.335,31.959,31.956C66.254,51.916,51.917,66.252,34.295,66.252z"/>
	<path style="fill:#404040;" d="M34.295,10.922c-12.888,0-23.373,10.485-23.373,23.372c0,12.89,10.485,23.377,23.373,23.377
		c12.889,0,23.375-10.487,23.375-23.377C57.67,21.407,47.184,10.922,34.295,10.922z M34.295,55.334
		c-11.6,0-21.036-9.438-21.036-21.04c0-11.599,9.436-21.033,21.036-21.033s21.037,9.435,21.037,21.033
		C55.332,45.896,45.895,55.334,34.295,55.334z"/>
	<path style="fill:#404040;" d="M34.295,22.023c-6.767,0-12.271,5.505-12.271,12.271c0,6.767,5.504,12.271,12.271,12.271
		s12.271-5.505,12.271-12.271C46.566,27.528,41.062,22.023,34.295,22.023z M34.295,44.229c-5.477,0-9.934-4.457-9.934-9.935
		c0-5.476,4.457-9.933,9.934-9.933c5.478,0,9.934,4.456,9.934,9.933C44.229,39.771,39.772,44.229,34.295,44.229z"/>
</g>
</svg>
