<?xml version="1.0" encoding="iso-8859-1"?>
<!-- Generator: Adobe Illustrator 17.0.0, SVG Export Plug-In . SVG Version: 6.00 Build 0)  -->
<!DOCTYPE svg PUBLIC "-//W3C//DTD SVG 1.1//EN" "http://www.w3.org/Graphics/SVG/1.1/DTD/svg11.dtd">
<svg version="1.1" id="Layer_1" xmlns="http://www.w3.org/2000/svg" xmlns:xlink="http://www.w3.org/1999/xlink" x="0px" y="0px"
	 width="69.589px" height="69.589px" viewBox="0 0 69.589 69.589" style="enable-background:new 0 0 69.589 69.589;"
	 xml:space="preserve">
<g>
	<path style="fill:#FFFFFF;stroke:#FDFDFD;stroke-miterlimit:10;" d="M34.795,0.5C15.885,0.5,0.5,15.886,0.5,34.794
		c0,18.909,15.385,34.295,34.295,34.295c18.909,0,34.294-15.386,34.294-34.295C69.089,15.886,53.704,0.5,34.795,0.5z M34.795,66.752
		c-17.621,0-31.957-14.336-31.957-31.958c0-17.621,14.336-31.956,31.957-31.956c17.62,0,31.956,14.335,31.956,31.956
		C66.751,52.416,52.415,66.752,34.795,66.752z"/>
	<path style="fill:#FFFFFF;stroke:#FDFDFD;stroke-miterlimit:10;" d="M55.829,33.624v1.17c0,11.603-9.436,21.04-21.035,21.04
		c-11.599,0-21.036-9.438-21.036-21.04v-1.17h-2.337v1.17c0,12.89,10.484,23.377,23.373,23.377
		c12.889,0,23.373-10.487,23.373-23.377v-1.17H55.829z"/>
	<path style="fill:#FFFFFF;stroke:#FDFDFD;stroke-miterlimit:10;" d="M23.755,27.256c0.926,0,1.81-0.362,2.465-1.018
		c0.678-0.656,1.04-1.54,1.04-2.489c0-0.929-0.384-1.832-1.04-2.465c-1.289-1.313-3.642-1.313-4.954,0
		c-0.657,0.633-1.019,1.536-1.019,2.465c0,0.949,0.362,1.833,1.019,2.489C21.944,26.894,22.827,27.256,23.755,27.256z"/>
	<path style="fill:#FFFFFF;stroke:#FDFDFD;stroke-miterlimit:10;" d="M45.833,27.256c0.928,0,1.811-0.362,2.489-1.018
		c0.655-0.678,1.017-1.562,1.017-2.489c0-0.929-0.361-1.832-1.017-2.465c-1.313-1.313-3.642-1.313-4.978,0
		c-0.633,0.633-1.018,1.536-1.018,2.465c0,0.949,0.361,1.812,1.041,2.489C44.025,26.894,44.905,27.256,45.833,27.256z"/>
</g>
</svg>
