<?xml version="1.0" encoding="iso-8859-1"?>
<!-- Generator: Adobe Illustrator 17.0.0, SVG Export Plug-In . SVG Version: 6.00 Build 0)  -->
<!DOCTYPE svg PUBLIC "-//W3C//DTD SVG 1.1//EN" "http://www.w3.org/Graphics/SVG/1.1/DTD/svg11.dtd">
<svg version="1.1" id="Layer_1" xmlns="http://www.w3.org/2000/svg" xmlns:xlink="http://www.w3.org/1999/xlink" x="0px" y="0px"
	 width="68.591px" height="68.589px" viewBox="0 0 68.591 68.589" style="enable-background:new 0 0 68.591 68.589;"
	 xml:space="preserve">
<g>
	<path style="fill:#404040;" d="M34.296,0C15.386,0,0,15.386,0,34.294c0,18.909,15.386,34.295,34.296,34.295
		c18.909,0,34.295-15.386,34.295-34.295C68.591,15.386,53.205,0,34.296,0z M34.296,66.252c-17.622,0-31.958-14.336-31.958-31.958
		c0-17.621,14.336-31.956,31.958-31.956c17.621,0,31.958,14.335,31.958,31.956C66.254,51.916,51.917,66.252,34.296,66.252z"/>
	<rect x="33.127" y="27.606" style="fill:#404040;" width="2.338" height="24.42"/>
	<path style="fill:#404040;" d="M31.818,15.239c-0.656,0.656-1.02,1.562-1.02,2.49c0,0.95,0.363,1.831,1.02,2.487
		c0.656,0.656,1.537,1.018,2.488,1.018c0.927,0,1.809-0.362,2.465-1.018c0.656-0.656,1.02-1.537,1.02-2.487
		c0-0.929-0.363-1.834-1.02-2.49C35.46,13.952,33.13,13.952,31.818,15.239z"/>
</g>
</svg>
