<?xml version="1.0" encoding="iso-8859-1"?>
<!-- Generator: Adobe Illustrator 17.0.0, SVG Export Plug-In . SVG Version: 6.00 Build 0)  -->
<!DOCTYPE svg PUBLIC "-//W3C//DTD SVG 1.1//EN" "http://www.w3.org/Graphics/SVG/1.1/DTD/svg11.dtd">
<svg version="1.1" id="Layer_1" xmlns="http://www.w3.org/2000/svg" xmlns:xlink="http://www.w3.org/1999/xlink" x="0px" y="0px"
	 width="68.021px" height="68.021px" viewBox="0 0 68.021 68.021" style="enable-background:new 0 0 68.021 68.021;"
	 xml:space="preserve">
<g>
	<path style="fill:#FFFFFF;" d="M34.012,0C15.258,0,0,15.257,0,34.008c0,18.756,15.258,34.013,34.012,34.013
		c18.754,0,34.01-15.257,34.01-34.013C68.021,15.257,52.766,0,34.012,0z M34.012,65.703c-17.476,0-31.693-14.218-31.693-31.695
		c0-17.474,14.217-31.691,31.693-31.691c17.477,0,31.691,14.216,31.691,31.691C65.703,51.485,51.488,65.703,34.012,65.703z"/>
	<path style="fill:#FFFFFF;" d="M42.787,35.678l-0.059-0.059H41.51h-1.213h-7.906v-5.882v-0.003h3.877H38.5h4.9v-2.318H32.807
		h-0.416v-0.055v-1.472v-4.997c0.479-0.169,0.926-0.431,1.305-0.797c0.65-0.672,1.01-1.547,1.01-2.467
		c0-0.898-0.359-1.818-1.01-2.469c-1.301-1.277-3.635-1.277-4.935,0.024c-0.629,0.65-1.01,1.546-1.01,2.445
		c0,0.92,0.359,1.794,1.01,2.467c0.381,0.368,0.83,0.631,1.312,0.8v6.467c-6.17,0.585-11.012,5.793-11.012,12.111
		c0,6.709,5.459,12.168,12.17,12.168c6.676,0,12.109-5.405,12.166-12.065l7.033,7.07l1.643-1.634l-8.191-8.233L42.787,35.678z
		 M31.23,49.322c-5.434,0-9.852-4.419-9.852-9.85c0-5.037,3.813-9.153,8.693-9.736v8.2h10.856c0.078,0.504,0.156,1.01,0.156,1.536
		C41.084,44.903,36.664,49.322,31.23,49.322z"/>
</g>
</svg>
