<?xml version="1.0" encoding="utf-8"?>
<!-- Generator: Adobe Illustrator 16.0.0, SVG Export Plug-In . SVG Version: 6.00 Build 0)  -->
<!DOCTYPE svg PUBLIC "-//W3C//DTD SVG 1.1//EN" "http://www.w3.org/Graphics/SVG/1.1/DTD/svg11.dtd">
<svg version="1.1" id="Layer_1" xmlns="http://www.w3.org/2000/svg" xmlns:xlink="http://www.w3.org/1999/xlink" x="0px" y="0px"
	 width="63.929px" height="64px" viewBox="0.071 118 63.929 64" enable-background="new 0.071 118 63.929 64" xml:space="preserve">
<g>
	<polygon fill="#959094" points="53.973,126.96 48.782,132.151 43.52,126.96 42.24,128.311 47.432,133.502 42.24,138.765 
		43.52,140.116 48.782,134.854 53.973,140.116 55.324,138.765 50.133,133.502 55.324,128.311 	"/>
	<path fill="#959094" d="M48.498,118c-5.263,0-9.956,2.631-12.729,6.685c0.07-0.071,0.142-0.213,0.213-0.285
		c-2.134-0.498-4.409-0.782-6.685-0.782c-16.071,0-29.227,13.084-29.227,29.156c0,16.07,13.084,29.227,29.227,29.227
		c16.142,0,29.227-13.084,29.227-29.227c0-2.418-0.284-4.693-0.854-6.969c-0.142,0.071-0.213,0.142-0.355,0.213
		C61.369,143.245,64,138.622,64,133.36C63.929,124.898,57.031,118,48.498,118z M46.721,148.791c0.213,0.996,0.355,1.991,0.426,2.986
		h-7.253c-0.071-2.133-0.214-4.053-0.498-5.902C41.458,147.44,44.018,148.436,46.721,148.791z M37.689,151.707h-7.325v-7.325h6.542
		C37.334,146.516,37.617,149.004,37.689,151.707z M37.689,153.911c-0.072,2.773-0.355,5.19-0.783,7.324h-6.542v-7.324H37.689z
		 M36.267,163.439c-1.636,5.121-4.409,6.686-5.973,7.183v-7.183H36.267z M38.613,163.439h5.191
		c-2.134,2.846-5.049,5.049-8.392,6.258C36.765,168.133,37.831,166,38.613,163.439z M39.111,161.235
		c0.426-2.134,0.711-4.622,0.711-7.324h7.324c-0.143,2.631-0.854,5.049-2.062,7.324H39.111z M30.364,142.178v-7.111
		c0.854,0.284,1.991,0.853,3.2,2.133c0.427,1.849,1.209,3.555,2.275,5.049L30.364,142.178L30.364,142.178z M29.298,179.227
		c-14.578,0-26.454-11.875-26.454-26.453s11.805-26.382,26.382-26.382c1.778,0,3.556,0.213,5.191,0.498
		c0.07-0.213,0.213-0.355,0.284-0.569c-1.066,1.991-1.636,4.267-1.706,6.685c-1.138-0.213-2.347-0.355-3.556-0.355
		c-0.284,0-0.284,0-0.498,0c-10.951,0.142-19.911,9.173-19.911,20.125s8.96,19.982,19.911,20.125c0.142,0,0.213,0,0.284,0
		c0,0,0.143,0,0.213,0c10.951-0.143,19.912-9.174,19.912-20.125c0-1.352-0.143-2.702-0.428-3.982
		c2.348-0.071,4.623-0.711,6.543-1.707c-0.143,0.071-0.285,0.142-0.498,0.285c0.355,1.777,0.568,3.555,0.568,5.404
		C55.68,167.352,43.805,179.227,29.298,179.227z M19.413,144.382c-0.426,2.133-0.711,4.622-0.711,7.325h-7.396
		c0.142-2.631,0.854-5.049,2.062-7.325H19.413z M14.791,142.178c2.133-2.844,5.049-5.049,8.391-6.258
		c-1.351,1.564-2.489,3.698-3.2,6.258H14.791z M18.631,153.911c0.071,2.702,0.284,5.19,0.711,7.324h-5.973
		c-1.209-2.275-1.92-4.765-2.062-7.324H18.631z M19.911,163.439c0.782,2.561,1.849,4.693,3.2,6.258
		c-3.342-1.209-6.258-3.412-8.391-6.258H19.911z M22.187,163.439h5.974v7.183C26.667,170.125,23.894,168.561,22.187,163.439z
		 M21.618,161.235c-0.498-2.134-0.711-4.551-0.782-7.324h7.325v7.324H21.618z M20.835,151.707c0.071-2.773,0.355-5.191,0.782-7.325
		h6.542v7.325H20.835z M22.187,142.178c1.636-5.12,4.409-6.685,5.974-7.111v7.111H22.187z M48.498,146.16
		c-7.04,0-12.729-5.689-12.729-12.729s5.688-12.729,12.729-12.729c7.039,0,12.729,5.689,12.729,12.729S55.537,146.16,48.498,146.16z
		"/>
</g>
</svg>
