<?xml version="1.0" encoding="iso-8859-1"?>
<!-- Generator: Adobe Illustrator 17.0.0, SVG Export Plug-In . SVG Version: 6.00 Build 0)  -->
<!DOCTYPE svg PUBLIC "-//W3C//DTD SVG 1.1//EN" "http://www.w3.org/Graphics/SVG/1.1/DTD/svg11.dtd">
<svg version="1.1" id="Icons" xmlns="http://www.w3.org/2000/svg" xmlns:xlink="http://www.w3.org/1999/xlink" x="0px" y="0px"
	 width="42px" height="90px" viewBox="0 0 42 90" style="enable-background:new 0 0 42 90;" xml:space="preserve">
<path id="Facebook_1_" style="fill:#F7EEF3;" d="M9.078,17.432c0,2.268,0,12.391,0,12.391H0v15.152h9.078V90h18.648V44.975H40.24
	c0,0,1.172-7.266,1.739-15.209c-1.629,0-14.183,0-14.183,0s0-8.816,0-10.36c0-1.548,2.033-3.631,4.043-3.631c2.006,0,6.24,0,10.16,0
	C42,13.711,42,6.583,42,0c-5.234,0-11.188,0-13.815,0C8.617,0,9.078,15.166,9.078,17.432z"/>
</svg>
