<?xml version="1.0" encoding="iso-8859-1"?>
<!-- Generator: Adobe Illustrator 17.0.0, SVG Export Plug-In . SVG Version: 6.00 Build 0)  -->
<!DOCTYPE svg PUBLIC "-//W3C//DTD SVG 1.1//EN" "http://www.w3.org/Graphics/SVG/1.1/DTD/svg11.dtd">
<svg version="1.1" id="Layer_1" xmlns="http://www.w3.org/2000/svg" xmlns:xlink="http://www.w3.org/1999/xlink" x="0px" y="0px"
	 width="69.592px" height="69.589px" viewBox="0 0 69.592 69.589" style="enable-background:new 0 0 69.592 69.589;"
	 xml:space="preserve">
<g>
	<path style="fill:#FFFFFF;stroke:#FFFFFF;stroke-miterlimit:10;" d="M34.795,0.5C15.885,0.5,0.5,15.886,0.5,34.794
		c0,18.909,15.385,34.295,34.295,34.295c18.91,0,34.297-15.386,34.297-34.295C69.092,15.886,53.705,0.5,34.795,0.5z M34.795,66.752
		c-17.621,0-31.958-14.336-31.958-31.958c0-17.621,14.337-31.956,31.958-31.956c17.623,0,31.959,14.335,31.959,31.956
		C66.754,52.416,52.418,66.752,34.795,66.752z"/>
	<rect x="28.104" y="22.586" style="fill:#FFFFFF;stroke:#FFFFFF;stroke-miterlimit:10;" width="24.425" height="2.337"/>
	<rect x="28.104" y="33.624" style="fill:#FFFFFF;stroke:#FFFFFF;stroke-miterlimit:10;" width="24.425" height="2.339"/>
	<rect x="28.104" y="44.669" style="fill:#FFFFFF;stroke:#FFFFFF;stroke-miterlimit:10;" width="24.425" height="2.337"/>
	<path style="fill:#FFFFFF;stroke:#FFFFFF;stroke-miterlimit:10;" d="M15.75,21.283c-0.656,0.633-1.019,1.536-1.019,2.465
		c0,0.949,0.363,1.833,1.019,2.489c0.678,0.656,1.561,1.018,2.487,1.018c0.928,0,1.811-0.362,2.466-1.018
		c0.656-0.656,1.041-1.54,1.041-2.489c0-0.929-0.385-1.832-1.041-2.465C19.392,19.97,17.061,19.97,15.75,21.283z"/>
	<path style="fill:#FFFFFF;stroke:#FFFFFF;stroke-miterlimit:10;" d="M15.75,32.321c-0.656,0.635-1.019,1.54-1.019,2.465
		c0,0.952,0.363,1.835,1.019,2.49c0.678,0.656,1.561,1.019,2.487,1.019c0.928,0,1.811-0.362,2.466-1.019
		c0.679-0.678,1.041-1.561,1.041-2.49c0-0.925-0.385-1.809-1.041-2.465C19.414,31.009,17.061,31.009,15.75,32.321z"/>
	<path style="fill:#FFFFFF;stroke:#FFFFFF;stroke-miterlimit:10;" d="M15.75,43.36c-0.656,0.656-1.019,1.563-1.019,2.468
		c0,0.95,0.363,1.832,1.019,2.488c0.678,0.656,1.561,1.018,2.487,1.018c0.928,0,1.811-0.361,2.466-1.018
		c0.679-0.656,1.041-1.538,1.041-2.488c0-0.905-0.385-1.811-1.041-2.468C19.392,42.049,17.061,42.049,15.75,43.36z"/>
</g>
</svg>
