<?xml version="1.0" encoding="iso-8859-1"?>
<!-- Generator: Adobe Illustrator 17.0.0, SVG Export Plug-In . SVG Version: 6.00 Build 0)  -->
<!DOCTYPE svg PUBLIC "-//W3C//DTD SVG 1.1//EN" "http://www.w3.org/Graphics/SVG/1.1/DTD/svg11.dtd">
<svg version="1.1" id="Layer_1" xmlns="http://www.w3.org/2000/svg" xmlns:xlink="http://www.w3.org/1999/xlink" x="0px" y="0px"
	 width="68.591px" height="68.589px" viewBox="0 0 68.591 68.589" style="enable-background:new 0 0 68.591 68.589;"
	 xml:space="preserve">
<g>
	<path style="fill:#404040;" d="M34.295,0C15.384,0,0,15.386,0,34.294c0,18.909,15.384,34.295,34.295,34.295
		c18.91,0,34.296-15.387,34.296-34.295C68.591,15.386,53.205,0,34.295,0z M34.295,66.251c-17.622,0-31.958-14.336-31.958-31.958
		c0-17.621,14.336-31.956,31.958-31.956c17.623,0,31.959,14.335,31.959,31.956C66.254,51.916,51.918,66.251,34.295,66.251z"/>
	<polygon style="fill:#404040;" points="35.463,33.081 35.463,11.043 33.126,11.043 33.126,34.245 33.124,35.413 57.549,35.465 
		57.553,33.127 	"/>
</g>
</svg>
