<?xml version="1.0" encoding="utf-8"?>
<!-- Generator: Adobe Illustrator 16.0.0, SVG Export Plug-In . SVG Version: 6.00 Build 0)  -->
<!DOCTYPE svg PUBLIC "-//W3C//DTD SVG 1.1//EN" "http://www.w3.org/Graphics/SVG/1.1/DTD/svg11.dtd">
<svg version="1.1" id="Layer_1" xmlns="http://www.w3.org/2000/svg" xmlns:xlink="http://www.w3.org/1999/xlink" x="0px" y="0px"
	 width="65px" height="65.156px" viewBox="-0.5 117.422 65 65.156" enable-background="new -0.5 117.422 65 65.156"
	 xml:space="preserve">
<g>
	<polygon fill="#929292" stroke="#929292" stroke-width="2" stroke-miterlimit="10" points="54.041,127.7 48.812,132.929 
		43.582,127.7 43.029,128.253 48.26,133.483 43.029,138.712 43.582,139.265 48.812,134.036 54.041,139.265 54.596,138.712 
		49.365,133.483 54.596,128.253 	"/>
	<path fill="#929292" stroke="#929292" stroke-miterlimit="10" d="M64,133.389c0-8.529-6.938-15.467-15.468-15.467
		c-5.286,0-9.957,2.668-12.748,6.726c0.069-0.101,0.128-0.208,0.199-0.306c-2.159-0.51-4.408-0.788-6.721-0.788
		C13.127,123.554,0,136.681,0,152.815c0,16.136,13.127,29.263,29.263,29.263c16.135,0,29.262-13.127,29.262-29.263
		c0-2.396-0.295-4.724-0.842-6.954c-0.115,0.085-0.241,0.157-0.359,0.239C61.352,143.306,64,138.653,64,133.389z M29.263,179.271
		c-14.587,0-26.456-11.868-26.456-26.456c0-14.587,11.869-26.454,26.456-26.454c1.791,0,3.541,0.181,5.233,0.522
		c0.093-0.201,0.205-0.39,0.307-0.585c-1.104,2.127-1.737,4.535-1.737,7.091c0,8.53,6.938,15.469,15.467,15.469
		c2.559,0,4.97-0.635,7.097-1.74c-0.16,0.083-0.313,0.177-0.477,0.255c0.369,1.758,0.566,3.578,0.566,5.443
		C55.719,167.403,43.851,179.271,29.263,179.271z M35.578,124.966c-0.197,0.302-0.387,0.608-0.562,0.923
		C35.191,125.574,35.381,125.268,35.578,124.966z M56.086,146.874c0.295-0.165,0.582-0.342,0.863-0.525
		C56.668,146.532,56.381,146.709,56.086,146.874z M48.532,146.18c-7.052,0-12.789-5.738-12.789-12.791
		c0-7.051,5.737-12.788,12.789-12.788s12.788,5.737,12.788,12.788C61.321,140.442,55.584,146.18,48.532,146.18z"/>
	<g>
		<g>
			<path fill="#929292" stroke="#929292" stroke-miterlimit="10" d="M25.432,161.598c-3.345,0-6.49-1.303-8.855-3.668
				s-3.668-5.51-3.668-8.854c0-3.345,1.303-6.49,3.668-8.855c2.365-2.366,5.51-3.667,8.855-3.667c3.345,0,6.489,1.302,8.855,3.667
				c4.883,4.882,4.882,12.827,0,17.709C31.921,160.295,28.776,161.598,25.432,161.598z M25.432,139.304
				c-2.611,0-5.064,1.016-6.911,2.861c-1.845,1.847-2.862,4.3-2.862,6.911c0,2.61,1.017,5.063,2.862,6.909
				c1.847,1.848,4.3,2.862,6.911,2.862c2.609,0,5.063-1.015,6.909-2.862c3.809-3.81,3.809-10.009,0-13.819
				C30.496,140.319,28.042,139.304,25.432,139.304z"/>
		</g>
		<g>
			
				<rect x="30.969" y="161.247" transform="matrix(-0.7071 -0.7071 0.7071 -0.7071 -48.4465 305.1769)" fill="#929292" stroke="#929292" stroke-miterlimit="10" width="16.025" height="2.75"/>
		</g>
	</g>
</g>
</svg>
