<?xml version="1.0" encoding="iso-8859-1"?>
<!-- Generator: Adobe Illustrator 17.0.0, SVG Export Plug-In . SVG Version: 6.00 Build 0)  -->
<!DOCTYPE svg PUBLIC "-//W3C//DTD SVG 1.1//EN" "http://www.w3.org/Graphics/SVG/1.1/DTD/svg11.dtd">
<svg version="1.1" id="Layer_1" xmlns="http://www.w3.org/2000/svg" xmlns:xlink="http://www.w3.org/1999/xlink" x="0px" y="0px"
	 width="68.59px" height="68.589px" viewBox="0 0 68.59 68.589" style="enable-background:new 0 0 68.59 68.589;"
	 xml:space="preserve">
<g>
	<path style="fill:#404040;" d="M34.295,0C15.385,0,0,15.386,0,34.294c0,18.909,15.385,34.295,34.295,34.295
		c18.911,0,34.295-15.386,34.295-34.295C68.59,15.386,53.206,0,34.295,0z M34.295,66.252c-17.621,0-31.957-14.336-31.957-31.958
		c0-17.621,14.336-31.956,31.957-31.956c17.622,0,31.958,14.335,31.958,31.956C66.253,51.916,51.917,66.252,34.295,66.252z"/>
	<path style="fill:#404040;" d="M45.163,47.43c-0.766,0.035-1.5,0.313-2.09,0.814L21.163,35.001
		c0.045-0.231,0.071-0.471,0.071-0.715c0-0.235-0.024-0.47-0.071-0.7l21.929-13.248c0.608,0.513,1.362,0.805,2.162,0.821
		c0.024,0,0.048,0.008,0.072,0.008c0.95,0,1.833-0.362,2.489-1.019c0.656-0.679,1.018-1.56,1.018-2.488
		c0-0.927-0.361-1.831-1.018-2.487c-1.29-1.29-3.643-1.311-4.954,0c-0.656,0.656-1.042,1.561-1.042,2.487
		c0,0.23,0.024,0.456,0.069,0.677L19.9,31.618c-1.346-1.054-3.439-1.018-4.64,0.203c-0.656,0.656-1.041,1.54-1.041,2.465
		c0,0.929,0.362,1.813,1.041,2.49c0.656,0.656,1.539,1.019,2.466,1.019c0.812,0,1.58-0.291,2.215-0.799L41.9,50.266
		c-0.034,0.199-0.059,0.4-0.059,0.604c0,0.928,0.363,1.812,1.019,2.468c0.655,0.678,1.538,1.041,2.488,1.041
		c0.928,0,1.81-0.363,2.466-1.041c0.656-0.656,1.041-1.54,1.041-2.468c0-0.926-0.385-1.832-1.041-2.487
		C47.115,47.683,46.132,47.383,45.163,47.43z"/>
</g>
</svg>
