<?xml version="1.0" encoding="iso-8859-1"?>
<!-- Generator: Adobe Illustrator 17.0.0, SVG Export Plug-In . SVG Version: 6.00 Build 0)  -->
<!DOCTYPE svg PUBLIC "-//W3C//DTD SVG 1.1//EN" "http://www.w3.org/Graphics/SVG/1.1/DTD/svg11.dtd">
<svg version="1.1" id="Layer_1" xmlns="http://www.w3.org/2000/svg" xmlns:xlink="http://www.w3.org/1999/xlink" x="0px" y="0px"
	 width="68.02px" height="68.021px" viewBox="0 0 68.02 68.021" style="enable-background:new 0 0 68.02 68.021;"
	 xml:space="preserve">
<g>
	<path style="fill:#FFFFFF;" d="M34.01,0C15.256,0,0,15.257,0,34.008c0,18.756,15.256,34.013,34.01,34.013
		c18.752,0,34.01-15.257,34.01-34.013C68.02,15.257,52.762,0,34.01,0z M34.01,65.703c-17.477,0-31.691-14.219-31.691-31.695
		c0-17.474,14.215-31.69,31.691-31.69c17.475,0,31.691,14.216,31.691,31.69C65.701,51.484,51.484,65.703,34.01,65.703z"/>
	<polygon style="fill:#FFFFFF;" points="35.166,47.745 35.166,16.392 32.85,16.392 32.85,47.797 18.521,33.469 16.883,35.108 
		33.971,52.197 33.973,52.197 33.977,52.201 51.137,35.108 49.5,33.467 	"/>
</g>
</svg>
