<?xml version="1.0" encoding="utf-8"?>
<!-- Generator: Adobe Illustrator 16.0.0, SVG Export Plug-In . SVG Version: 6.00 Build 0)  -->
<!DOCTYPE svg PUBLIC "-//W3C//DTD SVG 1.1//EN" "http://www.w3.org/Graphics/SVG/1.1/DTD/svg11.dtd">
<svg version="1.1" id="Layer_1" xmlns="http://www.w3.org/2000/svg" xmlns:xlink="http://www.w3.org/1999/xlink" x="0px" y="0px"
	 width="69.591px" height="69.589px" viewBox="0 0 69.591 69.589" enable-background="new 0 0 69.591 69.589" xml:space="preserve">
<g>
	<path fill="#FFFFFF" stroke="#FDFDFD" stroke-miterlimit="10" d="M34.796,0.5C15.886,0.5,0.5,15.886,0.5,34.794
		c0,18.909,15.386,34.295,34.296,34.295c18.909,0,34.295-15.386,34.295-34.295C69.091,15.886,53.705,0.5,34.796,0.5z M34.796,66.752
		c-17.622,0-31.958-14.336-31.958-31.958c0-17.621,14.336-31.956,31.958-31.956c17.621,0,31.958,14.335,31.958,31.956
		C66.754,52.416,52.417,66.752,34.796,66.752z"/>
	<rect x="33.627" y="28.106" fill="#FFFFFF" stroke="#FDFDFD" stroke-miterlimit="10" width="2.338" height="24.42"/>
	<path fill="#FFFFFF" stroke="#FDFDFD" stroke-miterlimit="10" d="M32.318,15.739c-0.656,0.656-1.02,1.562-1.02,2.49
		c0,0.95,0.363,1.831,1.02,2.487s1.537,1.019,2.488,1.019c0.927,0,1.809-0.362,2.465-1.019s1.02-1.537,1.02-2.487
		c0-0.929-0.363-1.834-1.02-2.49C35.96,14.452,33.63,14.452,32.318,15.739z"/>
</g>
</svg>
