<?xml version="1.0" encoding="iso-8859-1"?>
<!-- Generator: Adobe Illustrator 17.0.0, SVG Export Plug-In . SVG Version: 6.00 Build 0)  -->
<!DOCTYPE svg PUBLIC "-//W3C//DTD SVG 1.1//EN" "http://www.w3.org/Graphics/SVG/1.1/DTD/svg11.dtd">
<svg version="1.1" id="Layer_1" xmlns="http://www.w3.org/2000/svg" xmlns:xlink="http://www.w3.org/1999/xlink" x="0px" y="0px"
	 width="34.889px" height="58.646px" viewBox="0 0 34.889 58.646" style="enable-background:new 0 0 34.889 58.646;"
	 xml:space="preserve">
<g>
	<path style="fill:#FFFFFF;stroke:#FFFFFF;stroke-width:2;stroke-miterlimit:10;" d="M29.074,5.817C25.969,2.711,21.838,1,17.443,1
		C8.377,1,1,8.378,1,17.446c0,1.76,1.428,3.187,3.188,3.187c1.762,0,3.188-1.427,3.188-3.187c0-5.553,4.518-10.071,10.068-10.071
		c2.691,0,5.219,1.047,7.121,2.95c1.902,1.902,2.949,4.431,2.949,7.122c0,2.688-1.047,5.217-2.949,7.118
		c-1.902,1.902-4.43,2.949-7.121,2.949c-1.76,0-3.187,1.427-3.187,3.188c0,0.003,0.002,0.006,0.002,0.01v9.329
		c0,1.76,1.426,3.188,3.187,3.188c1.76,0,3.188-1.427,3.188-3.188V33.58c3.178-0.621,6.1-2.167,8.441-4.507
		c3.105-3.106,4.816-7.235,4.814-11.626C33.891,13.053,32.18,8.923,29.074,5.817z"/>
	<circle style="fill:#FFFFFF;stroke:#FFFFFF;stroke-width:2;stroke-miterlimit:10;" cx="17.445" cy="53.822" r="3.824"/>
</g>
</svg>
