<?xml version="1.0" encoding="iso-8859-1"?>
<!-- Generator: Adobe Illustrator 17.0.0, SVG Export Plug-In . SVG Version: 6.00 Build 0)  -->
<!DOCTYPE svg PUBLIC "-//W3C//DTD SVG 1.1//EN" "http://www.w3.org/Graphics/SVG/1.1/DTD/svg11.dtd">
<svg version="1.1" id="Layer_1" xmlns="http://www.w3.org/2000/svg" xmlns:xlink="http://www.w3.org/1999/xlink" x="0px" y="0px"
	 width="70.019px" height="70.019px" viewBox="0 0 70.019 70.019" style="enable-background:new 0 0 70.019 70.019;"
	 xml:space="preserve">
<g>
	<path style="stroke:#010202;stroke-width:2;stroke-miterlimit:10;" d="M35.42,1.022C35.208,1.005,35.06,1,35.008,1
		c-0.052,0-0.199,0.005-0.411,0.022C16.035,1.245,1,16.396,1,35.009c0,18.615,15.035,33.768,33.597,33.99
		c0.212,0.016,0.359,0.02,0.411,0.02c0.053,0,0.2-0.004,0.412-0.02c18.561-0.223,33.6-15.375,33.6-33.99
		C69.019,16.396,53.98,1.245,35.42,1.022z M42.926,65.661c2.805-2.345,5.725-6.321,7.613-13.094h10.832
		C57.101,58.958,50.563,63.685,42.926,65.661z M8.648,52.567H19.48c1.888,6.773,4.807,10.749,7.61,13.094
		C19.453,63.685,12.918,58.958,8.648,52.567z M27.091,4.36c-2.8,2.34-5.716,6.311-7.604,13.065H8.664
		C12.934,11.048,19.465,6.333,27.091,4.36z M61.355,17.425H50.533C48.644,10.671,45.728,6.7,42.928,4.36
		C50.555,6.333,57.086,11.048,61.355,17.425z M33.85,66.552c-2.57-0.527-8.691-2.955-11.96-13.984h11.96V66.552z M36.168,3.467
		c2.569,0.526,8.682,2.951,11.955,13.958H36.168V3.467z M36.168,33.85V19.743h12.566c0.887,3.768,1.455,8.408,1.524,14.107H36.168z
		 M33.85,19.743V33.85H19.76c0.07-5.698,0.639-10.339,1.525-14.107H33.85z M33.85,36.167V50.25H21.278
		c-0.883-3.764-1.448-8.396-1.519-14.083H33.85z M36.168,50.25V36.167h14.091c-0.067,5.688-0.636,10.319-1.519,14.083H36.168z
		 M33.85,17.425H21.896C25.168,6.418,31.279,3.995,33.85,3.467V17.425z M36.168,52.567h11.961
		c-3.271,11.036-9.396,13.459-11.961,13.986V52.567z M52.576,33.85c-0.067-5.601-0.605-10.255-1.469-14.107h11.659
		c2.324,4.211,3.689,9.008,3.876,14.107H52.576z M7.253,19.743h11.659c-0.863,3.852-1.402,8.506-1.47,14.107H3.377
		C3.563,28.751,4.928,23.954,7.253,19.743z M17.442,36.167c0.067,5.587,0.604,10.236,1.464,14.083H7.237
		c-2.315-4.206-3.677-8.995-3.86-14.083H17.442z M62.781,50.25H51.113c0.857-3.847,1.396-8.496,1.463-14.083h14.066
		C66.458,41.255,65.098,46.044,62.781,50.25z"/>
</g>
</svg>
