<?xml version="1.0" encoding="iso-8859-1"?>
<!-- Generator: Adobe Illustrator 17.0.0, SVG Export Plug-In . SVG Version: 6.00 Build 0)  -->
<!DOCTYPE svg PUBLIC "-//W3C//DTD SVG 1.1//EN" "http://www.w3.org/Graphics/SVG/1.1/DTD/svg11.dtd">
<svg version="1.1" id="Layer_1" xmlns="http://www.w3.org/2000/svg" xmlns:xlink="http://www.w3.org/1999/xlink" x="0px" y="0px"
	 width="68.596px" height="68.589px" viewBox="0 0 68.596 68.589" style="enable-background:new 0 0 68.596 68.589;"
	 xml:space="preserve">
<g>
	<path style="fill:#404040;" d="M34.3,0C15.387,0,0,15.385,0,34.298c0,18.909,15.387,34.292,34.3,34.292
		c18.91,0,34.296-15.383,34.296-34.292C68.596,15.385,53.21,0,34.3,0z M34.3,66.253c-17.624,0-31.963-14.336-31.963-31.956
		c0-17.623,14.339-31.96,31.963-31.96c17.622,0,31.958,14.337,31.958,31.96C66.258,51.917,51.922,66.253,34.3,66.253z"/>
	<path style="fill:#404040;" d="M58.872,31.809c-1.334-1.29-3.662-1.29-4.974,0c-0.369,0.369-0.633,0.82-0.806,1.304l-8.585-0.036
		l-0.415,1.207l-4.44,12.907l-4.229-12.916L28.79,14.013l-6.376,19.069h-6.932c-0.17-0.465-0.434-0.903-0.789-1.273
		c-1.29-1.29-3.643-1.312-4.955,0c-0.656,0.656-1.019,1.56-1.019,2.488c0,0.928,0.362,1.81,1.019,2.487
		c0.656,0.656,1.538,1.018,2.466,1.018c0.949,0,1.833-0.361,2.489-1.018c0.382-0.396,0.651-0.863,0.82-1.365h8.585l0.386-1.155
		l4.283-12.811l4.198,12.82L39.6,54.535l6.575-19.11l6.912,0.028c0.17,0.488,0.438,0.945,0.812,1.332
		c0.677,0.656,1.559,1.018,2.486,1.018c0.928,0,1.81-0.361,2.466-1.018c0.678-0.678,1.041-1.559,1.041-2.487
		C59.892,33.369,59.507,32.466,58.872,31.809z"/>
</g>
</svg>
