<?xml version="1.0" encoding="utf-8"?>
<!-- Generator: Adobe Illustrator 16.0.0, SVG Export Plug-In . SVG Version: 6.00 Build 0)  -->
<!DOCTYPE svg PUBLIC "-//W3C//DTD SVG 1.1//EN" "http://www.w3.org/Graphics/SVG/1.1/DTD/svg11.dtd">
<svg version="1.1" id="Layer_1" xmlns="http://www.w3.org/2000/svg" xmlns:xlink="http://www.w3.org/1999/xlink" x="0px" y="0px"
	 width="69.815px" height="69.819px" viewBox="0 0 69.815 69.819" enable-background="new 0 0 69.815 69.819" xml:space="preserve">
<g>
	<path fill="#FFFFFF" stroke="#FDFDFD" stroke-miterlimit="10" d="M34.907,0.5C15.935,0.5,0.5,15.934,0.5,34.912
		c0,18.972,15.435,34.407,34.407,34.407c18.972,0,34.408-15.436,34.408-34.407C69.315,15.934,53.879,0.5,34.907,0.5z M34.907,66.976
		c-17.678,0-32.065-14.385-32.065-32.063c0-17.681,14.388-32.066,32.065-32.066c17.679,0,32.066,14.385,32.066,32.066
		C66.974,52.591,52.586,66.976,34.907,66.976z"/>
	<polygon fill="#FFFFFF" stroke="#FDFDFD" stroke-miterlimit="10" points="45.152,33.688 44.735,34.896 40.283,47.845 
		36.038,34.888 29.382,14.559 22.986,33.692 11.581,33.692 11.581,36.036 24.674,36.036 25.062,34.876 29.359,22.023 33.568,34.885 
		40.226,55.212 46.822,36.043 58.234,36.087 58.24,33.741 	"/>
</g>
</svg>
