<?xml version="1.0" encoding="iso-8859-1"?>
<!-- Generator: Adobe Illustrator 17.0.0, SVG Export Plug-In . SVG Version: 6.00 Build 0)  -->
<!DOCTYPE svg PUBLIC "-//W3C//DTD SVG 1.1//EN" "http://www.w3.org/Graphics/SVG/1.1/DTD/svg11.dtd">
<svg version="1.1" id="Layer_1" xmlns="http://www.w3.org/2000/svg" xmlns:xlink="http://www.w3.org/1999/xlink" x="0px" y="0px"
	 width="68.589px" height="68.589px" viewBox="0 0 68.589 68.589" style="enable-background:new 0 0 68.589 68.589;"
	 xml:space="preserve">
<g>
	<path style="fill:#404040;" d="M34.295,0C15.385,0,0,15.386,0,34.294c0,18.909,15.385,34.295,34.295,34.295
		c18.909,0,34.294-15.386,34.294-34.295C68.589,15.386,53.204,0,34.295,0z M34.295,66.252c-17.621,0-31.957-14.336-31.957-31.958
		c0-17.621,14.336-31.956,31.957-31.956c17.62,0,31.956,14.335,31.956,31.956C66.251,51.916,51.915,66.252,34.295,66.252z"/>
	<path style="fill:#404040;" d="M55.329,33.124v1.17c0,11.603-9.435,21.04-21.035,21.04c-11.599,0-21.036-9.438-21.036-21.04v-1.17
		h-2.337v1.17c0,12.89,10.484,23.377,23.373,23.377c12.889,0,23.373-10.487,23.373-23.377v-1.17H55.329z"/>
	<path style="fill:#404040;" d="M23.255,26.756c0.926,0,1.81-0.362,2.465-1.018c0.678-0.656,1.041-1.54,1.041-2.489
		c0-0.929-0.384-1.832-1.041-2.465c-1.288-1.313-3.642-1.313-4.954,0c-0.657,0.633-1.018,1.536-1.018,2.465
		c0,0.949,0.362,1.833,1.018,2.489C21.444,26.393,22.327,26.756,23.255,26.756z"/>
	<path style="fill:#404040;" d="M45.333,26.756c0.928,0,1.811-0.362,2.489-1.018c0.655-0.678,1.017-1.562,1.017-2.489
		c0-0.929-0.361-1.832-1.017-2.465c-1.313-1.313-3.642-1.313-4.978,0c-0.633,0.633-1.018,1.536-1.018,2.465
		c0,0.949,0.361,1.812,1.041,2.489C43.524,26.393,44.405,26.756,45.333,26.756z"/>
</g>
</svg>
