<?xml version="1.0" encoding="utf-8"?>
<!-- Generator: Adobe Illustrator 16.0.0, SVG Export Plug-In . SVG Version: 6.00 Build 0)  -->
<!DOCTYPE svg PUBLIC "-//W3C//DTD SVG 1.1//EN" "http://www.w3.org/Graphics/SVG/1.1/DTD/svg11.dtd">
<svg version="1.1" id="Layer_1" xmlns="http://www.w3.org/2000/svg" xmlns:xlink="http://www.w3.org/1999/xlink" x="0px" y="0px"
	 width="69.826px" height="69.827px" viewBox="0 0 69.826 69.827" enable-background="new 0 0 69.826 69.827" xml:space="preserve">
<g>
	<path fill="#FFFFFF" stroke="#FDFDFD" stroke-miterlimit="10" d="M34.914,0.5C15.938,0.5,0.5,15.939,0.5,34.914
		c0,18.976,15.438,34.414,34.414,34.414S69.326,53.89,69.326,34.914C69.326,15.939,53.889,0.5,34.914,0.5z M34.914,66.981
		c-17.681,0-32.067-14.384-32.067-32.067c0-17.681,14.386-32.067,32.067-32.067c17.682,0,32.066,14.386,32.066,32.067
		C66.98,52.597,52.596,66.981,34.914,66.981z"/>
	<path fill="#FFFFFF" stroke="#FDFDFD" stroke-miterlimit="10" d="M34.914,11.46c-12.933,0-23.454,10.521-23.454,23.453
		c0,4.098,1.074,8.133,3.103,11.668l0.339,0.589l8.446-0.004l12.739,12.737V47.167h18.839l0.339-0.587
		c2.03-3.535,3.101-7.568,3.101-11.666C58.365,21.982,47.845,11.46,34.914,11.46z M33.741,54.242l-9.422-9.421l-8.046,0.002
		c-1.617-3.035-2.467-6.446-2.467-9.909c0-11.639,9.468-21.107,21.108-21.107c11.639,0,21.107,9.468,21.107,21.107
		c0,3.461-0.85,6.874-2.463,9.907H33.741V54.242z"/>
</g>
</svg>
