<?xml version="1.0" encoding="utf-8"?>
<!-- Generator: Adobe Illustrator 17.1.0, SVG Export Plug-In . SVG Version: 6.00 Build 0)  -->
<!DOCTYPE svg PUBLIC "-//W3C//DTD SVG 1.1//EN" "http://www.w3.org/Graphics/SVG/1.1/DTD/svg11.dtd">
<svg version="1.1" id="Layer_1" xmlns="http://www.w3.org/2000/svg" xmlns:xlink="http://www.w3.org/1999/xlink" x="0px" y="0px"
	 width="94.078px" height="94.076px" viewBox="0 0 94.078 94.076" enable-background="new 0 0 94.078 94.076" xml:space="preserve">
<path fill="#FFFFFF" stroke="#FDFDFD" stroke-miterlimit="10" d="M47.038,0.5C21.376,0.5,0.5,21.379,0.5,47.037
	c0,25.66,20.876,46.538,46.538,46.538c25.661,0,46.54-20.879,46.54-46.538C93.578,21.379,72.7,0.5,47.038,0.5z M47.038,90.404
	c-23.912,0-43.367-19.454-43.367-43.367c0-23.912,19.455-43.365,43.367-43.365c23.913,0,43.369,19.453,43.369,43.365
	C90.407,70.951,70.952,90.404,47.038,90.404z"/>
<path fill="#FDFDFD" d="M24.259,24.346C11.695,36.91,11.693,57.35,24.255,69.912C36.818,82.474,57.26,82.474,69.823,69.91
	c12.561-12.561,12.56-33.001-0.003-45.564l-2.951,2.951c10.936,10.936,10.938,28.728,0.004,39.662
	C55.936,77.897,38.14,77.898,27.204,66.962c-10.935-10.935-10.933-28.73,0.004-39.667"/>
<rect x="45.111" y="15.073" fill="#FDFDFD" width="4.205" height="34.142"/>
</svg>
