<?xml version="1.0" encoding="iso-8859-1"?>
<!-- Generator: Adobe Illustrator 17.0.0, SVG Export Plug-In . SVG Version: 6.00 Build 0)  -->
<!DOCTYPE svg PUBLIC "-//W3C//DTD SVG 1.1//EN" "http://www.w3.org/Graphics/SVG/1.1/DTD/svg11.dtd">
<svg version="1.1" id="Layer_1" xmlns="http://www.w3.org/2000/svg" xmlns:xlink="http://www.w3.org/1999/xlink" x="0px" y="0px"
	 width="69.591px" height="69.589px" viewBox="0 0 69.591 69.589" style="enable-background:new 0 0 69.591 69.589;"
	 xml:space="preserve">
<g>
	<path style="fill:#FFFFFF;stroke:#FDFDFD;stroke-miterlimit:10;" d="M34.795,0.5C15.884,0.5,0.5,15.886,0.5,34.794
		c0,18.909,15.384,34.295,34.295,34.295c18.91,0,34.296-15.387,34.296-34.295C69.091,15.886,53.705,0.5,34.795,0.5z M34.795,66.752
		c-17.622,0-31.958-14.336-31.958-31.958c0-17.621,14.336-31.956,31.958-31.956c17.623,0,31.959,14.335,31.959,31.956
		C66.754,52.416,52.418,66.752,34.795,66.752z"/>
	<polygon style="fill:#FFFFFF;stroke:#FDFDFD;stroke-miterlimit:10;" points="35.963,33.581 35.963,11.543 33.626,11.543 
		33.626,34.745 33.624,35.913 58.049,35.965 58.053,33.627 	"/>
</g>
</svg>
