<?xml version="1.0" encoding="iso-8859-1"?>
<!-- Generator: Adobe Illustrator 17.0.0, SVG Export Plug-In . SVG Version: 6.00 Build 0)  -->
<!DOCTYPE svg PUBLIC "-//W3C//DTD SVG 1.1//EN" "http://www.w3.org/Graphics/SVG/1.1/DTD/svg11.dtd">
<svg version="1.1" id="Artwork" xmlns="http://www.w3.org/2000/svg" xmlns:xlink="http://www.w3.org/1999/xlink" x="0px" y="0px"
	 width="263.62px" height="87.87px" viewBox="0 0 263.62 87.87" style="enable-background:new 0 0 263.62 87.87;"
	 xml:space="preserve">
<rect x="-0.146" y="-0.002" style="fill:none;" width="263.622" height="87.874"/>
<g>
	<path style="fill:#FFFFFF;" d="M83.084,44.47v1.161h0.889c0.217,0,0.391-0.051,0.519-0.155c0.128-0.104,0.193-0.245,0.193-0.423
		v-0.009c0-0.189-0.064-0.331-0.188-0.43c-0.127-0.096-0.304-0.145-0.529-0.145H83.084z"/>
	<path style="fill:#FFFFFF;" d="M76.904,51.315c-0.063-0.066-0.142-0.125-0.23-0.165c-0.089-0.041-0.187-0.061-0.298-0.061
		c-0.107,0-0.205,0.02-0.294,0.061c-0.09,0.04-0.164,0.097-0.229,0.164c-0.064,0.067-0.111,0.149-0.146,0.243
		c-0.032,0.094-0.05,0.193-0.05,0.296v0.009c0,0.106,0.02,0.206,0.055,0.297c0.037,0.094,0.086,0.176,0.152,0.246
		c0.065,0.072,0.144,0.128,0.231,0.168c0.089,0.042,0.186,0.061,0.293,0.061c0.111,0,0.211-0.019,0.3-0.061
		c0.087-0.04,0.164-0.096,0.227-0.166c0.063-0.068,0.112-0.149,0.145-0.242c0.032-0.092,0.05-0.189,0.05-0.293v-0.01
		c0-0.106-0.019-0.207-0.054-0.3C77.02,51.469,76.969,51.387,76.904,51.315z"/>
	<path style="fill:#FFFFFF;" d="M69.814,44.803c-0.104-0.104-0.229-0.186-0.378-0.244c-0.147-0.062-0.311-0.089-0.494-0.089h-0.68
		v2.354h0.68c0.182,0,0.347-0.027,0.494-0.086c0.149-0.058,0.274-0.138,0.378-0.243c0.104-0.103,0.184-0.226,0.24-0.37
		c0.058-0.146,0.087-0.299,0.087-0.467v-0.012c0-0.168-0.029-0.324-0.087-0.47C69.998,45.032,69.918,44.907,69.814,44.803z"/>
	<path style="fill:#FFFFFF;" d="M78.751,46.178c-0.187,0-0.331,0.038-0.437,0.108c-0.107,0.073-0.157,0.172-0.157,0.298v0.009
		c0,0.126,0.048,0.219,0.143,0.285c0.099,0.068,0.216,0.1,0.358,0.1c0.098,0,0.19-0.013,0.274-0.04
		c0.082-0.025,0.156-0.063,0.218-0.11c0.062-0.047,0.112-0.104,0.146-0.173c0.034-0.066,0.05-0.142,0.05-0.224v-0.147
		c-0.074-0.03-0.164-0.054-0.269-0.074C78.977,46.19,78.866,46.178,78.751,46.178z"/>
	<path style="fill:#FFFFFF;" d="M98.628,14.96c-0.076,0.067-0.129,0.111-0.129,0.111c0.033-0.042,0.062-0.075,0.092-0.111h-6.836
		c-0.133,0.132-0.267,0.242-0.392,0.308c-0.13,0.071-0.37,0.071-0.507-0.037c-0.08-0.055-0.136-0.134-0.111-0.272H88.97
		c-0.182,0.137-0.386,0.256-0.612,0.328c-0.203,0.064-0.396,0.074-0.53,0.018c-0.133-0.048-0.211-0.159-0.19-0.346h-0.477
		c0.06,0.134,0.048,0.32-0.064,0.561c-0.236,0.506-1.001,1.197-1.835,1.259c-0.304,0.022-0.5,0.05-0.648-0.105
		c-0.051-0.049-0.098-0.119-0.14-0.215c-0.193,0.131-0.664,0.499-0.769,0.673c-0.041,0.068,0.009,0.144,0.1,0.213
		c0.15,0.107,0.395,0.193,0.538,0.193c0.093,0,1.132-0.844,1.808-0.94c0.228-0.031,0.544,0.001,0.748,0.15
		c0.208,0.143,0.309,0.398,0.099,0.824c-0.142,0.287-0.882,1.037-1.295,1.117c0.314-0.03,0.574,0.007,0.756,0.105
		c0.326,0.164,0.421,0.504,0.179,0.963c-0.139,0.272-0.451,0.749-1.145,1.005c0.335,0.024,0.588,0.106,0.753,0.232
		c0.293,0.213,0.335,0.556,0.117,0.948c-0.231,0.412-1.24,1.317-2.315,1.238c-0.269-0.021-0.582-0.393-0.843-0.425
		c-0.261-0.03-0.541,0.493-1.013,0.676c0.285,0.163,0.601,0.395,0.676,0.637c0.738-0.65,1.297-0.953,2.193-0.94
		c0.246,0.003,0.485,0.064,0.662,0.18c0.296,0.184,0.425,0.52,0.13,1.012c-0.326,0.548-1.325,1.215-2.277,1.103
		c-0.244-0.029-0.431-0.046-0.572-0.123c-0.138-0.068-0.231-0.194-0.288-0.437c-0.387,0.326-0.925,0.684-1.417,0.839
		c0.106,0.041,0.202,0.087,0.284,0.136c0.599,0.345,0.613,0.876,0.225,1.367c-0.24,0.304-0.785,0.934-1.886,0.785
		c0.203,0.079,0.399,0.169,0.571,0.272c0.058,0.034,0.108,0.072,0.16,0.109c0.021,0.016,0.047,0.03,0.067,0.046
		c0.372,0.296,0.517,0.681,0.089,1.184c-0.424,0.492-1.549,0.928-2.543,0.549c-0.073-0.028-0.159-0.079-0.246-0.142
		c-0.254-0.178-0.524-0.471-0.56-0.696c-0.441,0.212-1.079,0.645-1.772,0.558c0.812,0.624,1.05,1.066,0.383,1.671
		c-0.488,0.447-1.689,0.728-2.668,0.202c-0.005-0.003-0.009-0.009-0.015-0.012c0,0,0,0-0.001,0c-0.376-0.2-0.67-0.797-0.585-1.339
		c-0.732,0.615-2.263,1.034-3.333,0.349c-0.002-0.001-0.004-0.004-0.006-0.005c-0.003-0.002-0.007-0.003-0.011-0.005
		c-0.262-0.163-0.537-0.601-0.597-0.871c-0.457,0.13-1.071,0.25-1.74,0.195c0.727,0.982,0.596,1.291-0.063,1.747
		c-0.335,0.234-0.893,0.39-1.475,0.373v4.6c0.323-0.051,0.71-0.042,0.965,0.122c0.001,0.001,0.003,0.003,0.005,0.004
		c0.004,0.002,0.008,0.003,0.012,0.005c0.234,0.144,0.489,0.674,0.043,1.002c-0.158,0.116-0.608,0.24-1.025,0.202v17.284h40.427
		V14.96H98.628z M94.855,15.85c0.247-0.183,0.372-0.28,0.618-0.478c0.062,0.003,0.124-0.003,0.16,0.031
		c0.046,0.026,0.065,0.089,0.014,0.266c-0.091,0.316-0.211,0.409-0.313,0.654c-0.58,0.474-0.66,0.425-0.854,0.533
		c0.002-0.009,0.005-0.014,0.007-0.023c-0.009,0.004-0.016,0.006-0.025,0.011C94.609,16.298,94.765,16.087,94.855,15.85z
		 M94.572,24.755c0.04-0.212,0.334-0.574,0.334-0.574c0.164-0.105,0.359-0.223,0.392-0.125c0.022,0.026,0.029,0.075-0.007,0.178
		c-0.126,0.346-0.701,0.533-0.701,0.533c0.001-0.006,0.007-0.015,0.008-0.022C94.593,24.748,94.572,24.755,94.572,24.755z
		 M95.164,21.77c-0.374,0.265-0.535,0.223-0.635,0.145l0.001-0.001c-0.005-0.004-0.013-0.006-0.018-0.01
		c0.053-0.175,0.302-0.498,0.528-0.766c0.139-0.095,0.372-0.191,0.429-0.087c0.029,0.031,0.041,0.082,0.01,0.178
		C95.366,21.563,95.279,21.518,95.164,21.77z M95.411,18.713c-0.293,0.264-0.44,0.392-0.732,0.637
		c0.004-0.013,0.006-0.02,0.01-0.032c-0.01,0.009-0.016,0.014-0.026,0.023c0.087-0.271,0.132-0.404,0.22-0.677
		c0.291-0.254,0.437-0.385,0.729-0.661c-0.004,0.014-0.007,0.022-0.011,0.035c0.01-0.009,0.016-0.014,0.026-0.024
		C95.541,18.294,95.495,18.437,95.411,18.713z M93.328,43.922h2.563v0.548h-1.96v0.951h1.738v0.547h-1.738v1.404h-0.603V43.922z
		 M90.696,17.118c0.079-0.203,0.666-1.018,1.254-1.351c0.226-0.127,0.421-0.137,0.54-0.061c0.126,0.067,0.177,0.221,0.099,0.445
		c-0.075,0.219-0.652,1.122-1.277,1.427c-0.14,0.066-0.422,0.088-0.563-0.038C90.655,17.466,90.612,17.336,90.696,17.118z
		 M90.581,19.485c0.088-0.208,0.784-1.073,1.326-1.347c0.143-0.073,0.433-0.089,0.581,0.039c0.098,0.074,0.146,0.201,0.071,0.406
		c-0.083,0.229-0.813,1.191-1.352,1.42c-0.121,0.05-0.332,0.044-0.482-0.041C90.574,19.888,90.477,19.737,90.581,19.485z
		 M90.525,21.932c0.023-0.052,0.63-0.907,1.241-1.18c0.198-0.089,0.377-0.069,0.489,0.022c0.119,0.084,0.171,0.239,0.096,0.432
		c-0.037,0.087-0.622,1.006-1.262,1.241c-0.058,0.023-0.354,0.037-0.507-0.094C90.482,22.278,90.431,22.15,90.525,21.932z
		 M91.559,26.456c-0.185,0.411-0.276,0.616-0.461,1.018c-0.422,0.123-0.631,0.176-1.047,0.269c0.003-0.006,0.005-0.011,0.008-0.017
		c-0.009,0.002-0.016,0.004-0.025,0.006c0.191-0.386,0.284-0.579,0.474-0.973c0.412-0.11,0.62-0.174,1.037-0.315
		c-0.003,0.007-0.005,0.012-0.009,0.02C91.544,26.46,91.55,26.458,91.559,26.456z M90.211,29.89
		c0.327-0.128,0.492-0.198,0.821-0.346c-0.004,0.008-0.006,0.013-0.01,0.021c0.01-0.004,0.018-0.008,0.028-0.012
		c-0.13,0.271-0.195,0.403-0.328,0.667c-0.328,0.138-0.495,0.201-0.823,0.322c0.004-0.009,0.007-0.013,0.011-0.022
		c-0.01,0.004-0.018,0.007-0.029,0.011C90.013,30.278,90.078,30.148,90.211,29.89z M89.665,33.233
		c0.067-0.214,0.402-0.479,0.402-0.479c0.124-0.029,0.259-0.053,0.337-0.024c0.082,0.018,0.117,0.083,0.031,0.244
		c-0.167,0.32-0.754,0.271-0.754,0.271c0.001-0.003,0.004-0.007,0.006-0.01C89.683,33.233,89.665,33.233,89.665,33.233z
		 M87.451,16.774c0.133-0.278,0.735-1.043,1.603-1.362c0.309-0.113,0.553-0.098,0.69,0.018c0.146,0.108,0.187,0.317,0.071,0.609
		c-0.129,0.325-0.755,1.229-1.647,1.466c-0.18,0.047-0.45,0.054-0.625-0.051C87.364,17.359,87.271,17.156,87.451,16.774z
		 M87.13,18.951c0.26-0.525,0.878-1.079,1.688-1.329c0.321-0.098,0.594-0.117,0.743-0.011c0.159,0.098,0.194,0.319,0.023,0.717
		c-0.25,0.591-0.875,1.259-1.735,1.435c-0.251,0.051-0.464,0.042-0.612-0.027c-0.017-0.007-0.028-0.019-0.044-0.028
		c-0.022-0.014-0.048-0.025-0.066-0.042C86.977,19.537,86.953,19.302,87.13,18.951z M86.844,21.205
		c0.157-0.29,0.835-1.059,1.784-1.302c0.257-0.067,0.468-0.053,0.618,0.023c0.248,0.113,0.331,0.391,0.162,0.767
		c-0.157,0.34-0.871,1.261-1.839,1.409c-0.191,0.03-0.477,0.005-0.659-0.129C86.72,21.844,86.63,21.608,86.844,21.205z M86.6,23.56
		c0.233-0.414,0.886-1,1.727-1.164c0.26-0.053,0.527-0.038,0.682,0.085c0.163,0.117,0.217,0.342,0.035,0.721
		c-0.239,0.489-0.927,1.167-1.775,1.255c-0.214,0.023-0.417-0.004-0.565-0.083C86.46,24.253,86.358,23.991,86.6,23.56z
		 M86.342,25.946c0.184-0.313,0.849-0.919,1.651-1.036c0.315-0.045,0.546,0.017,0.662,0.16c0.127,0.141,0.139,0.364-0.008,0.649
		c-0.178,0.344-0.857,1.059-1.694,1.108c-0.163,0.01-0.344-0.023-0.484-0.103C86.234,26.599,86.104,26.347,86.342,25.946z
		 M85.827,28.551c0.124-0.195,0.98-0.843,1.567-0.888c0.091-0.008,0.238,0.037,0.369,0.123c0.213,0.132,0.389,0.374,0.217,0.685
		c-0.121,0.216-1.023,0.945-1.608,0.947c-0.101,0.001-0.242-0.056-0.362-0.151C85.801,29.11,85.643,28.841,85.827,28.551z
		 M86.742,30.64c0.086-0.001,0.167,0.03,0.238,0.077c0.208,0.124,0.331,0.407,0.206,0.613c-0.164,0.274-0.967,0.705-1.297,0.69
		c-0.087-0.003-0.166-0.037-0.234-0.088c-0.206-0.14-0.318-0.44-0.188-0.635C85.635,31.046,86.418,30.647,86.742,30.64z
		 M84.393,37.432c0.094-0.2,0.454-0.377,0.454-0.377c0.118,0.004,0.25,0.016,0.323,0.063c0.083,0.042,0.113,0.118,0.009,0.264
		c-0.2,0.283-0.77,0.059-0.77,0.059c0-0.001,0.001-0.002,0.002-0.003C84.409,37.437,84.393,37.432,84.393,37.432z M84.596,44.012
		c0.168,0.061,0.306,0.146,0.419,0.255c0.091,0.096,0.162,0.206,0.212,0.33c0.048,0.125,0.073,0.264,0.073,0.415v0.008
		c0,0.143-0.021,0.27-0.061,0.383c-0.041,0.112-0.099,0.215-0.17,0.301c-0.072,0.086-0.16,0.16-0.258,0.223
		c-0.101,0.06-0.21,0.107-0.333,0.141l0.931,1.306h-0.715l-0.85-1.203h-0.009h-0.75v1.203h-0.602v-3.45h1.536
		C84.236,43.922,84.427,43.953,84.596,44.012z M85.237,34.746c-0.005-0.003-0.006-0.008-0.011-0.011
		c-0.002,0-0.004,0.001-0.006,0.001c-0.251-0.148-0.247-0.476-0.137-0.621c0.266-0.125,0.529-0.364,0.87-0.346
		c0.107,0.005,0.152,0.02,0.181,0.037c0.063,0.024,0.057,0.058,0.083,0.088c0.017,0.013,0.036,0.025,0.081,0.034
		c0,0.001,0,0.001,0,0.002c0.008,0.003,0.008,0.006,0.019,0.008c-0.084,0.189,0.127,0.083-0.056,0.36
		C86.08,34.576,85.656,34.658,85.237,34.746z M82.358,26.467c0.284-0.375,1.122-0.943,2.156-0.874
		c0.311,0.02,0.549,0.101,0.703,0.229c0.268,0.211,0.299,0.557,0.029,0.979c-0.276,0.429-1.15,1.146-2.229,0.971
		c-0.207-0.034-0.428-0.122-0.594-0.256C82.137,27.292,82.002,26.934,82.358,26.467z M81.642,28.905
		c0.227-0.279,1.19-0.861,2.106-0.749c0.18,0.022,0.334,0.078,0.46,0.155c0.374,0.22,0.494,0.644,0.201,1.065
		c-0.219,0.317-1.217,1.028-2.171,0.827c-0.104-0.022-0.225-0.076-0.34-0.152C81.552,29.829,81.251,29.39,81.642,28.905z
		 M81.057,31.525c0.234-0.279,1.232-0.692,1.848-0.583c0.107,0.02,0.218,0.069,0.318,0.139c0.298,0.199,0.504,0.584,0.222,0.962
		c-0.235,0.311-1.224,0.803-1.902,0.634c-0.057-0.014-0.112-0.039-0.166-0.069C81.015,32.419,80.731,31.906,81.057,31.525z
		 M80.484,34.332c0.159-0.18,0.866-0.49,1.35-0.375c0.067,0.016,0.142,0.052,0.212,0.103c0.212,0.146,0.387,0.427,0.146,0.722
		c-0.159,0.193-0.851,0.544-1.378,0.398c-0.036-0.01-0.074-0.029-0.111-0.052C80.466,34.992,80.226,34.621,80.484,34.332z
		 M80.902,37.647c-0.218,0.246-0.65,0.233-1.079,0.233c-0.004-0.003-0.004-0.008-0.008-0.011c-0.004,0-0.007,0-0.011,0
		c-0.236-0.215-0.186-0.557-0.057-0.682c0.281-0.072,0.572-0.261,0.91-0.162c0.095,0.027,0.142,0.05,0.171,0.073
		c0.075,0.046,0.057,0.087,0.099,0.133c0.016,0.013,0.025,0.026,0.058,0.04c0,0,0,0,0,0c0.007,0.004,0.006,0.007,0.015,0.011
		C80.894,37.463,81.117,37.402,80.902,37.647z M80.899,43.774v3.598h-0.6v-3.598H80.899z M76.928,31.039
		c0.265-0.252,1.195-0.716,2.219-0.363c0.094,0.032,0.178,0.074,0.255,0.12c0.034,0.019,0.061,0.044,0.092,0.066
		c0.029,0.022,0.062,0.041,0.088,0.064c0.358,0.31,0.432,0.78,0.084,1.159c-0.26,0.284-1.259,0.844-2.291,0.416
		c-0.101-0.041-0.22-0.112-0.333-0.205C76.696,32.02,76.407,31.534,76.928,31.039z M78.479,40.467c0.119-0.191,0.504-0.3,0.504-0.3
		c0.116,0.032,0.245,0.071,0.314,0.134c0.08,0.063,0.103,0.149-0.025,0.282c-0.023,0.024-0.059,0.021-0.087,0.035
		c-0.021,0.012-0.043,0.021-0.067,0.027c-0.06,0.013-0.117,0.018-0.183,0.006c-0.02-0.003-0.039-0.006-0.059-0.011
		c-0.199-0.051-0.382-0.161-0.382-0.161c0,0,0.001-0.001,0.002-0.002C78.487,40.473,78.479,40.467,78.479,40.467z M76.123,33.734
		c0.396-0.36,0.973-0.548,1.751-0.243c0.142,0.056,0.269,0.119,0.371,0.191c0.319,0.215,0.414,0.508-0.01,0.933
		c-0.393,0.396-0.969,0.636-1.794,0.274c-0.149-0.065-0.277-0.139-0.376-0.221C75.759,34.428,75.707,34.118,76.123,33.734z
		 M76.898,46.809c0.056,0.051,0.134,0.075,0.236,0.075c0.128,0,0.253-0.029,0.371-0.09v0.489c-0.076,0.043-0.158,0.075-0.243,0.1
		c-0.085,0.021-0.184,0.035-0.295,0.035c-0.108,0-0.209-0.016-0.3-0.043c-0.094-0.024-0.173-0.068-0.241-0.125
		c-0.069-0.061-0.122-0.14-0.158-0.236c-0.036-0.096-0.054-0.217-0.054-0.361v-1.37h-0.331v-0.514h0.331v-0.714h0.602v0.714h0.699
		v0.514h-0.699v1.275C76.815,46.674,76.842,46.757,76.898,46.809z M75.186,36.599c0.057-0.051,0.558-0.429,1.209-0.143
		c0.083,0.036,0.143,0.08,0.2,0.124c0.243,0.18,0.275,0.424,0.019,0.662c-0.055,0.056-0.55,0.47-1.226,0.159
		c-0.025-0.011-0.079-0.041-0.139-0.085C75.07,37.187,74.823,36.919,75.186,36.599z M75.062,44.37v-0.567h0.644v0.567H75.062z
		 M75.687,44.769v2.604h-0.602v-2.604H75.687z M73.69,39.782c0.221-0.186,0.333-0.28,0.55-0.467
		c0.341,0.089,0.513,0.129,0.856,0.212c-0.002,0.001-0.003,0.002-0.005,0.004c0.008,0.001,0.014,0.003,0.021,0.005
		c-0.22,0.195-0.326,0.291-0.548,0.481c-0.343-0.085-0.517-0.132-0.858-0.223c0.003-0.002,0.004-0.003,0.006-0.005
		C73.706,39.786,73.699,39.784,73.69,39.782z M71.911,32.526c0.295-0.229,1.438-0.567,2.331-0.11
		c0.005,0.002,0.009,0.006,0.014,0.009c0.001,0,0.001,0,0.002,0.001c0.68,0.349,0.859,1.093,0.341,1.54
		c-0.299,0.259-1.483,0.664-2.407,0.148c-0.004-0.002-0.01-0.007-0.014-0.01c-0.001-0.001-0.002-0.001-0.003-0.001
		C71.781,33.884,71.205,33.075,71.911,32.526z M72.811,36.447c-0.207,0.168-1.322,0.417-1.883,0.097
		c-0.004-0.002-0.008-0.007-0.012-0.009c0,0-0.001,0-0.002-0.001c-0.261-0.146-0.641-0.878-0.169-1.239
		c0.183-0.14,1.267-0.385,1.836-0.076c0.003,0.001,0.007,0.006,0.01,0.008c0.003,0.001,0.005,0.001,0.007,0.002
		C72.822,35.348,73.262,36.078,72.811,36.447z M68.012,31.254c0.439-0.311,1.419-0.647,2.499,0.015
		c0.005,0.003,0.008,0.006,0.013,0.01c0.002,0.001,0.003,0.001,0.004,0.002c0.802,0.49,0.915,1.174,0.231,1.694
		c-0.445,0.333-1.488,0.726-2.593,0.019c-0.003-0.002-0.007-0.005-0.01-0.007c-0.002-0.001-0.005-0.002-0.007-0.003
		C67.63,32.651,67.053,31.928,68.012,31.254z M66.697,35.383c-0.379-0.241-0.874-0.821-0.064-1.393
		c0.349-0.246,1.152-0.56,2.023-0.019c0.028,0.017,0.048,0.035,0.073,0.053c0.621,0.414,0.664,0.897,0.07,1.331
		c-0.332,0.247-1.113,0.583-1.984,0.089C66.776,35.422,66.737,35.408,66.697,35.383z M67.509,41.596
		c0.209-0.157,0.314-0.236,0.523-0.393c0.23,0.131,0.342,0.2,0.573,0.33c-0.001,0.001-0.002,0.001-0.003,0.002
		c0.007,0.004,0.011,0.006,0.018,0.011c-0.206,0.159-0.31,0.234-0.521,0.395c-0.23-0.131-0.344-0.2-0.574-0.332
		c0.001,0,0.001-0.001,0.002-0.001C67.52,41.603,67.516,41.601,67.509,41.596z M70.783,45.646c0,0.244-0.044,0.47-0.134,0.681
		c-0.088,0.21-0.214,0.394-0.376,0.548c-0.163,0.156-0.356,0.274-0.581,0.364c-0.227,0.089-0.473,0.133-0.743,0.133h-1.285v-3.45
		h1.285c0.27,0,0.516,0.043,0.743,0.131c0.225,0.085,0.417,0.208,0.581,0.361c0.163,0.154,0.288,0.338,0.376,0.546
		c0.09,0.209,0.134,0.433,0.134,0.677V45.646z M70.115,39.28c-0.398-0.225-0.597-0.339-0.99-0.572c0,0,0,0,0.001,0
		c-0.007-0.004-0.011-0.007-0.018-0.011c0.366-0.275,0.546-0.413,0.909-0.69c0.392,0.228,0.59,0.338,0.988,0.559
		c-0.001,0.001-0.002,0.002-0.003,0.002c0.007,0.004,0.011,0.006,0.018,0.01C70.661,38.86,70.48,39,70.115,39.28z M71.713,47.372
		h-0.6v-2.604h0.6V47.372z M71.733,44.37h-0.644v-0.567h0.644V44.37z M72.113,47.864l0.223-0.446
		c0.139,0.083,0.282,0.15,0.433,0.201c0.151,0.049,0.315,0.072,0.494,0.072c0.266,0,0.469-0.067,0.611-0.202
		c0.141-0.135,0.211-0.336,0.211-0.601v-0.202c-0.108,0.141-0.235,0.256-0.379,0.345c-0.145,0.09-0.322,0.133-0.537,0.133
		c-0.154,0-0.302-0.026-0.444-0.083c-0.141-0.057-0.267-0.135-0.377-0.238c-0.11-0.104-0.197-0.231-0.262-0.384
		c-0.067-0.15-0.101-0.321-0.101-0.511v-0.011c0-0.189,0.034-0.362,0.101-0.515c0.065-0.153,0.152-0.28,0.262-0.385
		c0.11-0.102,0.237-0.184,0.378-0.239c0.144-0.058,0.291-0.084,0.442-0.084c0.219,0,0.401,0.043,0.544,0.132
		c0.143,0.086,0.264,0.191,0.368,0.312v-0.39h0.595v2.072c0,0.433-0.109,0.76-0.329,0.979c-0.119,0.117-0.268,0.206-0.447,0.265
		c-0.179,0.058-0.387,0.086-0.624,0.086C72.844,48.171,72.455,48.068,72.113,47.864z M74.544,53.059h-0.557V51.13h-0.303v-0.46
		h0.303v-0.173c0-0.268,0.067-0.465,0.197-0.596c0.129-0.125,0.312-0.191,0.545-0.191c0.098,0,0.183,0.007,0.249,0.019
		c0.072,0.013,0.135,0.027,0.197,0.048v0.464c-0.054-0.021-0.108-0.034-0.156-0.045c-0.051-0.013-0.107-0.016-0.167-0.016
		c-0.213,0-0.318,0.119-0.318,0.362v0.133h0.636v0.455h-0.628V53.059z M77.664,51.862c0,0.169-0.032,0.33-0.097,0.481
		c-0.065,0.152-0.155,0.283-0.267,0.398c-0.115,0.113-0.252,0.204-0.409,0.271c-0.159,0.067-0.329,0.102-0.516,0.102
		c-0.18,0-0.349-0.034-0.505-0.099c-0.156-0.066-0.291-0.153-0.405-0.268c-0.115-0.112-0.202-0.243-0.267-0.395
		c-0.063-0.151-0.094-0.313-0.094-0.481v-0.01c0-0.172,0.033-0.335,0.096-0.487c0.067-0.151,0.157-0.285,0.27-0.396
		c0.113-0.116,0.249-0.207,0.404-0.273c0.158-0.068,0.327-0.101,0.514-0.101c0.183,0,0.353,0.032,0.51,0.1
		c0.155,0.065,0.291,0.154,0.405,0.268c0.115,0.112,0.202,0.245,0.266,0.396c0.063,0.15,0.095,0.312,0.095,0.484V51.862z
		 M79.289,51.193h-0.032c-0.121,0-0.232,0.021-0.331,0.059c-0.101,0.039-0.187,0.099-0.259,0.178
		c-0.073,0.08-0.13,0.178-0.169,0.297c-0.039,0.121-0.06,0.26-0.06,0.418v0.913h-0.554v-2.401h0.554v0.541
		c0.076-0.183,0.183-0.327,0.324-0.438c0.139-0.108,0.315-0.158,0.527-0.149V51.193z M79.925,47.372h-0.593v-0.32
		c-0.087,0.104-0.202,0.195-0.339,0.267c-0.139,0.071-0.307,0.108-0.502,0.108c-0.126,0-0.245-0.02-0.355-0.052
		c-0.114-0.035-0.211-0.085-0.294-0.152c-0.084-0.069-0.152-0.151-0.203-0.251c-0.05-0.103-0.076-0.217-0.076-0.351v-0.009
		c0-0.145,0.026-0.269,0.079-0.376c0.053-0.107,0.125-0.196,0.219-0.267c0.094-0.07,0.205-0.124,0.336-0.157
		c0.128-0.035,0.269-0.053,0.421-0.053c0.156,0,0.292,0.01,0.4,0.029c0.111,0.021,0.217,0.046,0.319,0.079V45.82
		c0-0.182-0.056-0.319-0.166-0.416c-0.109-0.092-0.269-0.142-0.475-0.142c-0.148,0-0.277,0.015-0.395,0.044
		c-0.115,0.03-0.231,0.069-0.349,0.119l-0.164-0.479c0.145-0.065,0.293-0.118,0.443-0.159c0.153-0.039,0.336-0.058,0.548-0.058
		c0.388,0,0.674,0.095,0.863,0.287c0.187,0.193,0.281,0.463,0.281,0.813V47.372z M81.758,51.13h-0.646v1.177
		c0,0.108,0.026,0.185,0.078,0.232c0.052,0.047,0.124,0.07,0.217,0.07c0.119,0,0.232-0.028,0.342-0.082v0.451
		c-0.071,0.038-0.144,0.067-0.223,0.091c-0.077,0.019-0.17,0.032-0.272,0.032c-0.101,0-0.193-0.013-0.278-0.037
		c-0.086-0.024-0.161-0.063-0.223-0.119c-0.063-0.053-0.11-0.126-0.144-0.215c-0.035-0.091-0.05-0.201-0.05-0.336V51.13h-0.306
		v-0.473h0.306v-0.658h0.554v0.658h0.646V51.13z M84.123,53.059h-0.555v-1.363c0-0.185-0.043-0.329-0.132-0.433
		c-0.09-0.1-0.215-0.151-0.377-0.151c-0.159,0-0.288,0.054-0.387,0.157c-0.1,0.104-0.147,0.25-0.147,0.438v1.352h-0.558v-3.321
		h0.558v1.297c0.037-0.06,0.081-0.112,0.127-0.163c0.046-0.051,0.101-0.096,0.163-0.137c0.062-0.039,0.131-0.071,0.205-0.095
		c0.072-0.023,0.157-0.034,0.251-0.034c0.273,0,0.483,0.085,0.631,0.251c0.147,0.167,0.221,0.393,0.221,0.673V53.059z
		 M86.637,51.974c-0.001,0.024-0.004,0.053-0.006,0.081h-1.765c0.031,0.196,0.108,0.348,0.235,0.452
		c0.125,0.104,0.277,0.155,0.455,0.155c0.138,0,0.256-0.023,0.356-0.07c0.101-0.049,0.199-0.121,0.296-0.215l0.324,0.285
		c-0.116,0.137-0.254,0.247-0.413,0.328c-0.159,0.082-0.349,0.124-0.572,0.124c-0.172,0-0.334-0.031-0.484-0.094
		c-0.15-0.058-0.28-0.144-0.39-0.253c-0.112-0.108-0.197-0.241-0.263-0.393c-0.063-0.154-0.095-0.322-0.095-0.508v-0.009
		c0-0.173,0.03-0.336,0.087-0.486c0.057-0.153,0.139-0.286,0.244-0.399c0.103-0.114,0.227-0.203,0.371-0.268
		c0.142-0.067,0.298-0.1,0.472-0.1c0.191,0,0.357,0.034,0.503,0.106c0.144,0.071,0.265,0.162,0.36,0.281
		c0.093,0.118,0.168,0.256,0.215,0.412c0.05,0.157,0.073,0.32,0.073,0.493C86.64,51.922,86.638,51.949,86.637,51.974z M87.124,47.3
		c-0.174,0.082-0.366,0.121-0.578,0.121c-0.161,0-0.31-0.022-0.444-0.068c-0.138-0.047-0.257-0.113-0.357-0.2
		c-0.099-0.088-0.178-0.192-0.236-0.312c-0.059-0.122-0.087-0.257-0.087-0.405v-0.012c0-0.222,0.063-0.414,0.189-0.572
		c0.126-0.16,0.308-0.29,0.545-0.393c-0.099-0.125-0.171-0.245-0.218-0.36c-0.045-0.113-0.068-0.233-0.068-0.358v-0.01
		c0-0.116,0.023-0.225,0.068-0.33c0.047-0.104,0.112-0.198,0.198-0.277c0.085-0.08,0.188-0.142,0.311-0.19
		c0.122-0.047,0.259-0.072,0.415-0.072c0.137,0,0.262,0.022,0.372,0.064c0.112,0.042,0.209,0.103,0.289,0.178
		c0.081,0.074,0.142,0.163,0.188,0.266c0.044,0.103,0.065,0.21,0.065,0.326v0.008c0,0.227-0.067,0.413-0.207,0.557
		c-0.137,0.142-0.321,0.256-0.551,0.343l0.591,0.6c0.066-0.099,0.129-0.202,0.193-0.315c0.061-0.11,0.12-0.229,0.175-0.35
		l0.459,0.242c-0.069,0.139-0.141,0.272-0.218,0.405c-0.076,0.134-0.162,0.262-0.25,0.381l0.541,0.555l-0.448,0.32l-0.457-0.468
		C87.459,47.109,87.297,47.22,87.124,47.3z M91.044,53.059l-0.375-0.898h-1.757l-0.382,0.898h-0.669l1.633-3.742h0.607l1.635,3.742
		H91.044z M91.855,45.646c0,0.244-0.045,0.47-0.133,0.681c-0.088,0.21-0.215,0.394-0.378,0.548
		c-0.161,0.156-0.354,0.274-0.581,0.364c-0.225,0.089-0.471,0.133-0.74,0.133h-1.287v-3.45h1.287c0.269,0,0.516,0.043,0.74,0.131
		c0.227,0.085,0.42,0.208,0.581,0.361c0.163,0.154,0.29,0.338,0.378,0.546c0.088,0.209,0.133,0.433,0.133,0.677V45.646z
		 M91.941,24.01c-0.106,0.255-0.649,0.894-1.159,1.049c-0.128,0.04-0.298,0.019-0.41-0.066c-0.117-0.079-0.179-0.222-0.082-0.438
		c0.098-0.207,0.67-0.83,1.138-1.006c0.128-0.048,0.306-0.048,0.423,0.025C91.972,23.641,92.038,23.776,91.941,24.01z
		 M93.671,50.883h-0.038c-0.14,0-0.269,0.023-0.388,0.068c-0.114,0.048-0.217,0.114-0.301,0.207
		c-0.085,0.091-0.152,0.208-0.196,0.35c-0.046,0.138-0.069,0.302-0.069,0.481v1.069h-0.648v-2.8h0.648v0.629
		c0.087-0.213,0.213-0.383,0.377-0.509c0.163-0.129,0.368-0.185,0.614-0.176V50.883z M95.491,50.807H94.74v1.378
		c0,0.12,0.028,0.211,0.089,0.266c0.061,0.057,0.145,0.083,0.256,0.083c0.136,0,0.271-0.032,0.396-0.096v0.526
		c-0.08,0.046-0.168,0.08-0.26,0.106c-0.091,0.023-0.197,0.037-0.317,0.037c-0.119,0-0.225-0.017-0.325-0.044
		c-0.099-0.025-0.187-0.073-0.261-0.138c-0.071-0.063-0.128-0.147-0.169-0.253c-0.039-0.104-0.058-0.233-0.058-0.39v-1.477h-0.356
		v-0.548h0.356v-0.772h0.649v0.772h0.751V50.807z M97.87,52.232c0,0.149-0.027,0.277-0.08,0.388
		c-0.052,0.109-0.125,0.198-0.22,0.272c-0.095,0.072-0.204,0.127-0.332,0.165c-0.127,0.036-0.263,0.056-0.409,0.056
		c-0.2,0-0.404-0.037-0.612-0.107c-0.208-0.07-0.399-0.177-0.575-0.317l0.286-0.435c0.151,0.112,0.307,0.197,0.463,0.257
		c0.158,0.059,0.31,0.087,0.453,0.087c0.139,0,0.246-0.027,0.322-0.082c0.076-0.054,0.114-0.128,0.114-0.22v-0.012
		c0-0.052-0.016-0.099-0.05-0.137c-0.034-0.038-0.08-0.072-0.138-0.101c-0.06-0.028-0.126-0.057-0.202-0.08
		c-0.075-0.021-0.154-0.049-0.238-0.074c-0.1-0.028-0.204-0.063-0.309-0.101c-0.104-0.037-0.199-0.087-0.28-0.15
		c-0.086-0.061-0.152-0.137-0.206-0.229c-0.052-0.091-0.079-0.204-0.079-0.339V51.06c0-0.129,0.026-0.247,0.077-0.354
		c0.05-0.105,0.122-0.194,0.212-0.27c0.091-0.074,0.195-0.13,0.318-0.17c0.122-0.038,0.253-0.059,0.39-0.059
		c0.176,0,0.356,0.032,0.536,0.086c0.181,0.057,0.345,0.136,0.494,0.238l-0.255,0.456c-0.134-0.08-0.271-0.146-0.409-0.192
		c-0.138-0.049-0.264-0.072-0.381-0.072c-0.124,0-0.222,0.026-0.288,0.08c-0.071,0.053-0.105,0.119-0.105,0.2v0.01
		c0,0.051,0.019,0.093,0.052,0.131c0.036,0.037,0.084,0.07,0.142,0.101c0.059,0.028,0.125,0.058,0.202,0.083
		c0.077,0.028,0.153,0.054,0.237,0.077c0.102,0.033,0.204,0.068,0.306,0.113c0.103,0.042,0.197,0.095,0.278,0.155
		c0.084,0.063,0.153,0.137,0.205,0.225c0.053,0.089,0.08,0.196,0.08,0.324V52.232z M98.429,47.372h-0.602v-0.409
		c-0.085,0.126-0.193,0.234-0.32,0.327c-0.127,0.09-0.292,0.137-0.49,0.137c-0.295,0-0.524-0.091-0.684-0.271
		c-0.159-0.182-0.241-0.426-0.241-0.732v-1.655h0.601v1.476c0,0.202,0.048,0.358,0.144,0.47c0.097,0.109,0.232,0.163,0.409,0.163
		c0.172,0,0.312-0.056,0.42-0.169s0.161-0.271,0.161-0.474v-1.467h0.602V47.372z M101.143,47.372h-0.6v-1.475
		c0-0.205-0.047-0.361-0.145-0.471c-0.096-0.108-0.231-0.164-0.407-0.164c-0.174,0-0.314,0.056-0.42,0.171
		c-0.109,0.112-0.162,0.269-0.162,0.471v1.468h-0.603v-2.604h0.603v0.41c0.041-0.063,0.088-0.123,0.141-0.176
		c0.049-0.056,0.109-0.105,0.176-0.148c0.067-0.044,0.142-0.077,0.222-0.102c0.08-0.024,0.171-0.038,0.272-0.038
		c0.294,0,0.523,0.091,0.683,0.271c0.161,0.181,0.24,0.424,0.24,0.729V47.372z M104.051,47.372h-0.6l0.005-0.435
		c-0.096,0.136-0.214,0.25-0.36,0.346c-0.142,0.094-0.317,0.144-0.528,0.144c-0.154,0-0.304-0.03-0.448-0.09
		c-0.146-0.06-0.273-0.146-0.385-0.261c-0.112-0.116-0.202-0.256-0.27-0.424c-0.069-0.168-0.105-0.358-0.105-0.577v-0.009
		c0-0.218,0.035-0.408,0.101-0.577c0.068-0.169,0.157-0.309,0.268-0.423c0.112-0.117,0.242-0.202,0.387-0.262
		c0.146-0.06,0.295-0.09,0.451-0.09c0.212,0,0.387,0.046,0.528,0.139c0.142,0.092,0.262,0.198,0.356,0.32v-1.399h0.6V47.372z"/>
	<path style="fill:#FFFFFF;" d="M90.887,44.803c-0.105-0.104-0.231-0.186-0.378-0.244c-0.147-0.062-0.313-0.089-0.493-0.089h-0.679
		v2.354h0.679c0.18,0,0.346-0.027,0.493-0.086c0.148-0.058,0.273-0.138,0.378-0.243c0.102-0.103,0.184-0.226,0.24-0.37
		c0.059-0.146,0.086-0.299,0.086-0.467v-0.012c0-0.168-0.027-0.324-0.086-0.47C91.071,45.032,90.989,44.907,90.887,44.803z"/>
	<path style="fill:#FFFFFF;" d="M103.232,45.459c-0.068-0.071-0.147-0.128-0.241-0.167c-0.09-0.039-0.186-0.061-0.284-0.061
		c-0.101,0-0.197,0.021-0.286,0.058c-0.091,0.038-0.17,0.096-0.24,0.166c-0.068,0.072-0.121,0.16-0.161,0.263
		c-0.039,0.104-0.06,0.22-0.06,0.349v0.009c0,0.126,0.021,0.241,0.06,0.343c0.04,0.104,0.093,0.192,0.161,0.265
		c0.07,0.072,0.149,0.128,0.24,0.166c0.089,0.04,0.185,0.061,0.286,0.061c0.098,0,0.194-0.021,0.284-0.061
		c0.093-0.038,0.173-0.096,0.241-0.17c0.07-0.072,0.125-0.161,0.166-0.263c0.041-0.104,0.06-0.215,0.06-0.341v-0.009
		c0-0.127-0.019-0.239-0.06-0.343C103.358,45.619,103.302,45.53,103.232,45.459z"/>
	<path style="fill:#FFFFFF;" d="M74.089,45.938c0-0.107-0.021-0.206-0.062-0.293c-0.043-0.086-0.094-0.163-0.164-0.226
		c-0.071-0.064-0.151-0.114-0.245-0.149c-0.094-0.034-0.191-0.052-0.293-0.052c-0.106,0-0.202,0.018-0.29,0.052
		c-0.089,0.035-0.168,0.083-0.235,0.145c-0.066,0.063-0.12,0.139-0.157,0.225c-0.039,0.088-0.057,0.187-0.057,0.294v0.01
		c0,0.108,0.02,0.207,0.061,0.294c0.038,0.086,0.09,0.162,0.155,0.227c0.066,0.063,0.144,0.114,0.235,0.148
		c0.091,0.033,0.187,0.052,0.289,0.052c0.102,0,0.198-0.019,0.293-0.052c0.094-0.033,0.174-0.085,0.245-0.148
		c0.07-0.064,0.121-0.141,0.164-0.227c0.04-0.087,0.062-0.184,0.062-0.288V45.938z"/>
	<path style="fill:#FFFFFF;" d="M86.701,45.277c0.177-0.064,0.311-0.141,0.403-0.225c0.093-0.082,0.138-0.188,0.138-0.313v-0.01
		c0-0.116-0.039-0.21-0.112-0.281c-0.073-0.073-0.168-0.109-0.284-0.109c-0.124,0-0.223,0.041-0.296,0.116
		c-0.075,0.077-0.112,0.177-0.112,0.298v0.011c0,0.085,0.019,0.166,0.059,0.241C86.536,45.081,86.604,45.172,86.701,45.277z"/>
	<path style="fill:#FFFFFF;" d="M85.912,51.242c-0.051-0.059-0.113-0.103-0.184-0.136c-0.072-0.032-0.151-0.049-0.244-0.049
		c-0.171,0-0.31,0.059-0.421,0.175c-0.111,0.116-0.177,0.271-0.203,0.458h1.233c-0.008-0.089-0.028-0.172-0.058-0.249
		C86.004,51.364,85.962,51.298,85.912,51.242z"/>
	<polygon style="fill:#FFFFFF;" points="89.15,51.583 90.43,51.583 89.788,50.098 	"/>
	<path style="fill:#FFFFFF;" d="M86.144,46.087c-0.075,0.104-0.109,0.208-0.109,0.319v0.01c0,0.147,0.055,0.269,0.16,0.362
		c0.11,0.093,0.247,0.14,0.416,0.14c0.119,0,0.231-0.025,0.34-0.077c0.11-0.054,0.211-0.128,0.312-0.223l-0.77-0.785
		C86.331,45.903,86.216,45.988,86.144,46.087z"/>
</g>
<polygon style="fill:#FFFFFF;" points="23.23,65.021 22.062,65.021 22.062,72.251 26.287,72.251 26.287,71.005 23.421,71.005 
	23.421,65.021 "/>
<path style="fill:#FFFFFF;" d="M26.783,68.632c0,2.267,1.366,3.733,3.489,3.733c2.12,0,3.49-1.466,3.49-3.733
	c0-2.234-1.402-3.735-3.49-3.735C28.183,64.896,26.783,66.397,26.783,68.632 M31.631,66.666c0.45,0.447,0.707,1.16,0.707,1.966
	c0,1.204-0.541,2.484-2.067,2.484c-1.526,0-2.072-1.28-2.072-2.484c0-0.806,0.26-1.519,0.711-1.966
	c0.355-0.351,0.812-0.532,1.361-0.528C30.817,66.134,31.275,66.315,31.631,66.666"/>
<polygon style="fill:#FFFFFF;" points="39.407,65.016 33.975,65.016 33.975,66.26 36.105,66.26 36.105,72.246 37.466,72.246 
	37.466,66.26 39.504,66.26 39.504,65.016 "/>
<polygon style="fill:#FFFFFF;" points="45.592,65.016 40.301,65.016 40.301,66.26 42.29,66.26 42.29,72.246 43.652,72.246 
	43.652,66.26 45.782,66.26 45.782,65.016 "/>
<polygon style="fill:#FFFFFF;" points="50.62,65.016 46.589,65.016 46.589,72.246 50.809,72.246 50.809,71 47.95,71 47.95,69.124 
	50.555,69.124 50.555,67.88 47.95,67.88 47.95,66.26 50.809,66.26 50.809,65.016 "/>
<path style="fill:#FFFFFF;" d="M52.287,65.016h-0.191v7.23h1.36v-3.045h0.4c0.512,0,0.718,0,0.977,0.557l1.101,2.488h1.544
	l-1.429-3.004c-0.139-0.273-0.262-0.441-0.413-0.57c0.711-0.271,1.178-0.864,1.178-1.615c0-1.797-1.438-2.041-2.848-2.041H52.287z
	 M54.21,66.26c0.444,0,1.188,0.105,1.188,0.82c0,0.552-0.487,0.877-1.292,0.877h-0.65V66.26H54.21z"/>
<path style="fill:#FFFFFF;" d="M63.701,65.016H62.45c0,0-1.624,2.5-1.891,2.911c-0.27-0.408-1.937-2.911-1.937-2.911h-1.606
	c0,0,2.781,4.139,2.843,4.229v3.001h1.361v-3.001c0.07-0.091,2.842-4.229,2.842-4.229H63.701z"/>
<polygon style="fill:#FFFFFF;" points="71.312,65.016 67.477,65.016 67.477,72.246 68.839,72.246 68.839,69.124 71.385,69.124 
	71.385,67.88 68.839,67.88 68.839,66.26 71.502,66.26 71.502,65.016 "/>
<path style="fill:#FFFFFF;" d="M78.314,65.016h-1.172v4.072c0,1.405-0.456,2.03-1.488,2.03c-1.029,0-1.488-0.625-1.488-2.03v-4.072
	h-1.362v4.2c0,2.001,1.04,3.149,2.85,3.149c1.813,0,2.85-1.148,2.85-3.149v-4.2H78.314z"/>
<path style="fill:#FFFFFF;" d="M85.582,65.016H84.41v4.998c-0.533-0.969-2.743-4.998-2.743-4.998h-1.638v7.23h1.364v-5.122
	c0.536,0.971,2.816,5.122,2.816,5.122h1.561v-7.23H85.582z"/>
<path style="fill:#FFFFFF;" d="M87.419,65.016h-0.193v7.23h2.216c2.439,0,3.839-1.338,3.839-3.68c0-2.092-1.58-3.551-3.839-3.551
	H87.419z M89.547,66.26c1.384,0,2.315,0.938,2.315,2.349c0,1.613-0.798,2.392-2.431,2.392h-0.842v-4.74H89.547z"/>
<polygon style="fill:#FFFFFF;" points="98.421,65.016 94.393,65.016 94.393,72.246 98.61,72.246 98.61,71 95.752,71 95.752,69.124 
	98.357,69.124 98.357,67.88 95.752,67.88 95.752,66.26 98.61,66.26 98.61,65.016 "/>
<path style="fill:#FFFFFF;" d="M100.086,65.016h-0.187v7.23h2.211c2.444,0,3.842-1.338,3.842-3.68c0-2.092-1.58-3.551-3.842-3.551
	H100.086z M102.22,66.26c1.383,0,2.315,0.938,2.315,2.349c0,1.613-0.798,2.392-2.433,2.392h-0.843v-4.74H102.22z"/>
<path style="fill:#FFFFFF;" d="M44.66,18.73c0.436,0,0.846,0.109,1.223,0.327c0.378,0.218,0.672,0.521,0.897,0.896
	c0.217,0.379,0.329,0.784,0.329,1.219c0,0.44-0.112,0.847-0.329,1.222c-0.219,0.375-0.519,0.669-0.895,0.891
	c-0.379,0.216-0.788,0.327-1.226,0.327c-0.438,0-0.851-0.11-1.226-0.327c-0.379-0.217-0.677-0.512-0.896-0.888
	c-0.218-0.377-0.327-0.785-0.327-1.225c0-0.441,0.109-0.846,0.329-1.222c0.22-0.378,0.521-0.674,0.896-0.895
	C43.814,18.84,44.222,18.73,44.66,18.73 M44.66,19.131c-0.563,0-1.041,0.202-1.441,0.603c-0.396,0.394-0.599,0.874-0.599,1.438
	s0.203,1.044,0.598,1.439c0.396,0.4,0.879,0.597,1.442,0.597c0.562,0,1.045-0.197,1.44-0.597c0.396-0.397,0.596-0.879,0.596-1.439
	c0-0.564-0.199-1.044-0.596-1.438C45.703,19.333,45.221,19.131,44.66,19.131 M44.103,22.485h-0.426v-2.63h0.912
	c0.323,0,0.55,0.022,0.683,0.075c0.133,0.052,0.24,0.137,0.322,0.257c0.077,0.118,0.12,0.245,0.12,0.382
	c0,0.198-0.075,0.37-0.211,0.508c-0.141,0.138-0.321,0.215-0.542,0.237c0.1,0.042,0.193,0.106,0.277,0.2
	c0.088,0.095,0.196,0.249,0.329,0.463l0.321,0.509h-0.519l-0.232-0.41c-0.167-0.297-0.294-0.487-0.391-0.573
	c-0.095-0.089-0.227-0.131-0.392-0.131h-0.252V22.485z M44.103,20.21v0.798h0.52c0.222,0,0.383-0.034,0.486-0.099
	c0.1-0.064,0.153-0.165,0.153-0.304c0-0.145-0.053-0.248-0.151-0.305c-0.098-0.06-0.272-0.09-0.521-0.09H44.103z"/>
<path style="fill:#FFFFFF;" d="M38.586,37.81c0.75-0.589,1.61-0.817,2.288-0.534c1.085,0.456,1.115,1.915,0.372,3.538
	c-0.319,0.687-0.79,1.242-1.313,1.631c-0.701,0.513-1.395,0.709-1.993,0.487c-1.413-0.536-1.697-3.249-0.631-6.065
	c1.068-2.818,3.068-4.661,4.483-4.13c1.295,0.491,1.641,2.812,0.866,5.363c0.1-0.963-0.225-1.821-0.927-2.167
	c-0.995-0.492-2.362,0.251-3.046,1.651C38.651,37.657,38.618,37.735,38.586,37.81"/>
<path style="fill:#FFFFFF;" d="M47.109,39.345c0.35-1.951-0.151-3.438-1.23-3.438c-1.213,0-2.708,1.873-3.331,4.176
	c-0.629,2.31-0.149,4.179,1.065,4.179c0.779,0,1.676-0.777,2.383-1.949c0.103-0.171,0.202-0.356,0.275-0.545
	c0.483-1.261,0.239-2.492-0.614-2.724c-0.521-0.145-1.104-0.034-1.658,0.454c0.018-0.055,0.041-0.116,0.066-0.175
	c0.46-1.092,1.463-1.755,2.242-1.489C46.856,38.025,47.14,38.625,47.109,39.345"/>
<path style="fill:#FFFFFF;" d="M34.861,21.651c-1.334-3.027-2.684-4.82-3.986-3.924c-1.703,1.163-1.337,4.145,0.736,9.295
	C32.547,25.126,33.665,23.163,34.861,21.651"/>
<path style="fill:#FFFFFF;" d="M46.777,42.391c-0.061,0.161-0.13,0.314-0.212,0.458c-0.806,1.495-1.958,2.476-3.09,2.476
	c-1.229,0-2.096-1.173-2.338-2.891c-0.322,0.429-0.714,0.783-1.13,1.055c-0.874,0.573-1.779,0.772-2.564,0.475
	c-1.861-0.703-2.368-3.926-1.132-7.197c0.566-1.503,1.402-2.75,2.326-3.596c-0.219-0.888-0.467-1.854-0.742-2.858
	c-0.125,0.251-0.253,0.5-0.382,0.757c-0.639,1.262-1.458,2.09-2.326,2.629c0.572-1,1.137-2.016,1.634-2.986
	c2.573-5.052,4.623-9.522,2.732-10.624c-2.339-1.365-5.472,3.414-7.83,8.521c-2.369,5.098-3.733,10.287-3.733,10.287
	s-2.355-4.379-6.952-4.379c-2.35,0-3.814,1.144-3.814,2.155c0,0.718,0.582,1.172,1.332,1.373c1.504,0.39,2.292,0.958,3.425,2.508
	c1.142,1.566,2.035,5.37,2.225,6.258c1.209,5.062,5.761,8.817,11.192,8.817c6.355,0,11.51-5.152,11.51-11.514
	C46.907,43.53,46.861,42.958,46.777,42.391 M37.63,51.237c-4.106,0-7.655-3.767-9.334-9.237c2.361,4.234,6.264,6.999,10.692,6.999
	c1.798,0,3.517-0.458,5.073-1.286C42.3,49.919,40.063,51.237,37.63,51.237"/>
<rect x="55.952" y="14.96" style="fill:#FFFFFF;" width="0.747" height="40.423"/>
<rect x="114.831" y="14.996" style="fill:#FFFFFF;" width="0.729" height="57.474"/>
<g>
	<path style="fill:#FFFFFF;" d="M124.78,21.498c0.415,0.263,0.901,0.417,1.561,0.417c0.872,0,1.591-0.447,1.591-1.451
		c0-1.387-3.243-1.56-3.243-3.415c0-1.135,0.992-1.843,2.239-1.843c0.344,0,0.902,0.051,1.388,0.233l-0.111,0.639
		c-0.314-0.172-0.812-0.264-1.288-0.264c-0.729,0-1.53,0.304-1.53,1.215c0,1.419,3.243,1.429,3.243,3.496
		c0,1.428-1.227,1.996-2.321,1.996c-0.69,0-1.227-0.142-1.601-0.304L124.78,21.498z"/>
	<path style="fill:#FFFFFF;" d="M133.902,21.184c0,0.395,0,0.8,0.04,1.216h-0.618v-0.922h-0.021
		c-0.212,0.466-0.597,1.044-1.671,1.044c-1.276,0-1.762-0.851-1.762-1.987v-3.302h0.639v3.142c0,0.972,0.344,1.6,1.225,1.6
		c1.166,0,1.531-1.023,1.531-1.885v-2.857h0.638V21.184z"/>
	<path style="fill:#FFFFFF;" d="M135.346,17.232h0.637l-0.04,0.942h0.018c0.164-0.284,0.559-1.064,1.653-1.064
		c1.519,0,2.128,1.134,2.128,2.705c0,1.53-0.71,2.706-2.128,2.706c-0.812,0-1.296-0.334-1.611-1.003h-0.021v3.009h-0.637V17.232z
		 M137.513,17.658c-1.135,0-1.53,1.216-1.53,2.158c0,0.942,0.396,2.158,1.53,2.158c1.216,0,1.531-1.155,1.531-2.158
		C139.044,18.813,138.729,17.658,137.513,17.658z"/>
	<path style="fill:#FFFFFF;" d="M140.881,17.232h0.639l-0.042,0.942h0.021c0.161-0.284,0.558-1.064,1.65-1.064
		c1.52,0,2.128,1.134,2.128,2.705c0,1.53-0.71,2.706-2.128,2.706c-0.81,0-1.296-0.334-1.611-1.003h-0.019v3.009h-0.639V17.232z
		 M143.048,17.658c-1.134,0-1.528,1.216-1.528,2.158c0,0.942,0.395,2.158,1.528,2.158c1.216,0,1.531-1.155,1.531-2.158
		C144.579,18.813,144.264,17.658,143.048,17.658z"/>
	<path style="fill:#FFFFFF;" d="M148.493,17.111c1.672,0,2.412,1.297,2.412,2.705c0,1.409-0.74,2.706-2.412,2.706
		c-1.673,0-2.413-1.297-2.413-2.706C146.08,18.408,146.82,17.111,148.493,17.111z M148.493,21.974c1.114,0,1.712-0.962,1.712-2.158
		c0-1.195-0.598-2.158-1.712-2.158c-1.115,0-1.715,0.962-1.715,2.158C146.778,21.012,147.378,21.974,148.493,21.974z"/>
	<path style="fill:#FFFFFF;" d="M152.012,18.387c0-0.567,0-0.78-0.042-1.155h0.639v0.993h0.021c0.232-0.579,0.668-1.115,1.327-1.115
		c0.15,0,0.335,0.03,0.445,0.06v0.669c-0.131-0.04-0.304-0.06-0.466-0.06c-1.012,0-1.286,1.135-1.286,2.067v2.553h-0.639V18.387z"/>
	<path style="fill:#FFFFFF;" d="M157.515,17.78h-1.176v3.343c0,0.466,0.173,0.851,0.689,0.851c0.244,0,0.406-0.05,0.588-0.121
		l0.04,0.526c-0.152,0.061-0.466,0.142-0.78,0.142c-1.134,0-1.174-0.78-1.174-1.723V17.78h-1.014v-0.547h1.014v-1.246l0.637-0.223
		v1.469h1.176V17.78z"/>
	<path style="fill:#FFFFFF;" d="M162.024,22.237c-0.444,0.183-1.023,0.284-1.498,0.284c-1.714,0-2.351-1.154-2.351-2.706
		c0-1.581,0.87-2.705,2.178-2.705c1.459,0,2.057,1.175,2.057,2.564v0.324h-3.535c0,1.094,0.586,1.975,1.701,1.975
		c0.466,0,1.146-0.192,1.448-0.385V22.237z M161.711,19.452c0-0.902-0.364-1.794-1.316-1.794c-0.943,0-1.52,0.942-1.52,1.794
		H161.711z"/>
	<path style="fill:#FFFFFF;" d="M167.62,22.399h-0.637v-0.821h-0.021c-0.346,0.659-0.871,0.943-1.611,0.943
		c-1.418,0-2.127-1.175-2.127-2.706c0-1.571,0.607-2.705,2.127-2.705c1.014,0,1.52,0.74,1.611,0.994h0.021V14.8h0.637V22.399z
		 M165.453,21.974c1.134,0,1.53-1.216,1.53-2.158c0-0.942-0.396-2.158-1.53-2.158c-1.216,0-1.529,1.155-1.529,2.158
		C163.924,20.819,164.237,21.974,165.453,21.974z"/>
	<path style="fill:#FFFFFF;" d="M171.721,14.8h0.637v3.304h0.021c0.092-0.254,0.598-0.994,1.611-0.994
		c1.52,0,2.129,1.134,2.129,2.705c0,1.53-0.71,2.706-2.129,2.706c-0.739,0-1.266-0.284-1.611-0.943h-0.021v0.821h-0.637V14.8z
		 M173.889,17.658c-1.165,0-1.531,1.216-1.531,2.158c0,0.942,0.396,2.158,1.531,2.158c1.215,0,1.53-1.155,1.53-2.158
		C175.419,18.813,175.104,17.658,173.889,17.658z"/>
	<path style="fill:#FFFFFF;" d="M178.755,21.538h0.01l1.491-4.306h0.669l-2.068,5.937c-0.242,0.71-0.608,1.419-1.326,1.419
		c-0.234,0-0.478-0.03-0.689-0.081l0.061-0.547c0.122,0.041,0.244,0.081,0.477,0.081c0.545,0,0.729-0.456,0.932-1.125l0.132-0.457
		l-1.833-5.228h0.698L178.755,21.538z"/>
	<path style="fill:#FFFFFF;" d="M184.412,15.327h0.881l3.598,6.222h0.021v-6.222h0.698v7.072h-0.94l-3.537-6.1h-0.02v6.1h-0.699
		V15.327z"/>
	<path style="fill:#FFFFFF;" d="M194.557,22.237c-0.444,0.183-1.021,0.284-1.498,0.284c-1.713,0-2.351-1.154-2.351-2.706
		c0-1.581,0.872-2.705,2.178-2.705c1.459,0,2.057,1.175,2.057,2.564v0.324h-3.535c0,1.094,0.586,1.975,1.702,1.975
		c0.466,0,1.146-0.192,1.447-0.385V22.237z M194.243,19.452c0-0.902-0.364-1.794-1.316-1.794c-0.943,0-1.52,0.942-1.52,1.794
		H194.243z"/>
	<path style="fill:#FFFFFF;" d="M195.665,21.65c0.386,0.193,0.852,0.324,1.347,0.324c0.609,0,1.146-0.334,1.146-0.922
		c0-1.226-2.481-1.033-2.481-2.533c0-1.024,0.83-1.408,1.681-1.408c0.274,0,0.821,0.06,1.277,0.233l-0.062,0.558
		c-0.335-0.152-0.791-0.243-1.145-0.243c-0.659,0-1.115,0.203-1.115,0.861c0,0.962,2.543,0.84,2.543,2.533
		c0,1.095-1.021,1.469-1.803,1.469c-0.496,0-0.992-0.062-1.448-0.244L195.665,21.65z"/>
	<path style="fill:#FFFFFF;" d="M202.133,17.78h-1.177v3.343c0,0.466,0.173,0.851,0.689,0.851c0.244,0,0.406-0.05,0.588-0.121
		l0.04,0.526c-0.15,0.061-0.466,0.142-0.779,0.142c-1.135,0-1.176-0.78-1.176-1.723V17.78h-1.013v-0.547h1.013v-1.246l0.638-0.223
		v1.469h1.177V17.78z"/>
	<path style="fill:#FFFFFF;" d="M206.146,21.569h-0.02c-0.284,0.618-1.003,0.952-1.64,0.952c-1.471,0-1.704-0.993-1.704-1.46
		c0-1.731,1.845-1.813,3.182-1.813h0.122v-0.264c0-0.88-0.315-1.327-1.176-1.327c-0.537,0-1.042,0.122-1.52,0.425v-0.619
		c0.395-0.192,1.064-0.354,1.52-0.354c1.277,0,1.813,0.577,1.813,1.925v2.28c0,0.415,0,0.729,0.051,1.083h-0.627V21.569z
		 M206.086,19.796h-0.184c-1.103,0-2.421,0.111-2.421,1.246c0,0.679,0.486,0.932,1.074,0.932c1.499,0,1.53-1.306,1.53-1.864V19.796z
		"/>
	<path style="fill:#FFFFFF;" d="M208.481,21.549h0.851l-0.8,2.208h-0.639L208.481,21.549z"/>
	<path style="fill:#FFFFFF;" d="M215.809,15.327h0.79l2.807,7.072h-0.729l-0.761-1.895h-3.567l-0.759,1.895h-0.68L215.809,15.327z
		 M216.152,15.996l-1.54,3.901h3.07L216.152,15.996z"/>
	<path style="fill:#FFFFFF;" d="M220.239,18.387c0-0.567,0-0.78-0.041-1.155h0.639v0.993h0.02c0.232-0.579,0.669-1.115,1.328-1.115
		c0.15,0,0.334,0.03,0.444,0.06v0.669c-0.131-0.04-0.304-0.06-0.466-0.06c-1.012,0-1.286,1.135-1.286,2.067v2.553h-0.639V18.387z"/>
	<path style="fill:#FFFFFF;" d="M225.743,17.78h-1.177v3.343c0,0.466,0.173,0.851,0.689,0.851c0.244,0,0.406-0.05,0.588-0.121
		l0.04,0.526c-0.152,0.061-0.466,0.142-0.779,0.142c-1.135,0-1.175-0.78-1.175-1.723V17.78h-1.014v-0.547h1.014v-1.246l0.637-0.223
		v1.469h1.177V17.78z"/>
	<path style="fill:#FFFFFF;" d="M226.393,21.65c0.385,0.193,0.851,0.324,1.347,0.324c0.608,0,1.146-0.334,1.146-0.922
		c0-1.226-2.48-1.033-2.48-2.533c0-1.024,0.83-1.408,1.681-1.408c0.274,0,0.821,0.06,1.275,0.233l-0.061,0.558
		c-0.334-0.152-0.79-0.243-1.143-0.243c-0.659,0-1.115,0.203-1.115,0.861c0,0.962,2.543,0.84,2.543,2.533
		c0,1.095-1.021,1.469-1.804,1.469c-0.497,0-0.993-0.062-1.448-0.244L226.393,21.65z"/>
	<path style="fill:#FFFFFF;" d="M237.533,20.668c0.445-0.639,0.606-1.388,0.606-2.149h0.608c0,0.912-0.263,1.844-0.791,2.554
		l1.206,1.306h-0.891l-0.751-0.791c-0.576,0.648-1.316,0.933-2.148,0.933c-1.195,0-2.32-0.607-2.32-1.976
		c0-1.085,0.732-1.692,1.672-2.058c-0.434-0.496-0.922-1.033-0.922-1.743c0-1.012,0.973-1.539,1.906-1.539
		c0.84,0,1.66,0.466,1.66,1.459c0,1.104-0.85,1.499-1.701,1.925L237.533,20.668z M235.08,18.883
		c-0.669,0.265-1.328,0.852-1.328,1.632c0,0.962,0.791,1.459,1.642,1.459c0.639,0,1.339-0.324,1.743-0.82L235.08,18.883z
		 M235.304,18.226c0.617-0.294,1.367-0.619,1.367-1.449c0-0.668-0.404-1.024-1.003-1.024c-0.598,0-1.165,0.345-1.165,1.034
		C234.503,17.344,234.918,17.8,235.304,18.226z"/>
	<path style="fill:#FFFFFF;" d="M124.994,27.695h0.699v3.131h3.576v-3.131h0.699v7.072h-0.699v-3.333h-3.576v3.333h-0.699V27.695z"
		/>
	<path style="fill:#FFFFFF;" d="M135.595,33.552c0,0.396,0,0.8,0.04,1.216h-0.616v-0.921h-0.021c-0.215,0.466-0.6,1.043-1.674,1.043
		c-1.275,0-1.761-0.851-1.761-1.986v-3.302h0.639v3.141c0,0.972,0.344,1.601,1.224,1.601c1.166,0,1.531-1.023,1.531-1.885v-2.856
		h0.638V33.552z"/>
	<path style="fill:#FFFFFF;" d="M143.34,34.768v-3.434c0-0.73-0.274-1.308-1.096-1.308c-0.698,0-1.388,0.598-1.388,1.884v2.857
		h-0.639v-3.434c0-0.73-0.273-1.308-1.094-1.308c-0.698,0-1.388,0.598-1.388,1.884v2.857h-0.639v-3.95c0-0.396,0-0.802-0.041-1.216
		h0.618v0.871l0.021,0.009c0.202-0.354,0.507-1.002,1.611-1.002c0.456,0,1.206,0.192,1.367,1.094h0.02
		c0.233-0.609,0.842-1.094,1.651-1.094c1.044,0,1.632,0.729,1.632,1.732v3.556H143.34z"/>
	<path style="fill:#FFFFFF;" d="M148.411,33.937h-0.021c-0.284,0.618-1.004,0.952-1.643,0.952c-1.469,0-1.703-0.993-1.703-1.459
		c0-1.732,1.845-1.813,3.184-1.813h0.12v-0.264c0-0.881-0.313-1.328-1.174-1.328c-0.539,0-1.044,0.122-1.521,0.426v-0.618
		c0.395-0.192,1.066-0.354,1.521-0.354c1.275,0,1.813,0.577,1.813,1.924v2.281c0,0.414,0,0.729,0.051,1.083h-0.627V33.937z
		 M148.349,32.165h-0.182c-1.105,0-2.422,0.111-2.422,1.246c0,0.678,0.487,0.932,1.073,0.932c1.5,0,1.53-1.307,1.53-1.865V32.165z"
		/>
	<path style="fill:#FFFFFF;" d="M150.409,30.817c0-0.396,0-0.802-0.041-1.216h0.618v0.921h0.02c0.212-0.466,0.597-1.043,1.672-1.043
		c1.275,0,1.762,0.85,1.762,1.986v3.302h-0.639v-3.141c0-0.973-0.344-1.601-1.225-1.601c-1.167,0-1.529,1.024-1.529,1.884v2.857
		h-0.639V30.817z"/>
	<path style="fill:#FFFFFF;" d="M156.581,28.223h-0.639v-0.852h0.639V28.223z M155.942,29.601h0.639v5.167h-0.639V29.601z"/>
	<path style="fill:#FFFFFF;" d="M160.323,30.147h-1.176v3.344c0,0.465,0.173,0.851,0.689,0.851c0.242,0,0.405-0.051,0.588-0.122
		l0.039,0.526c-0.152,0.062-0.466,0.142-0.779,0.142c-1.135,0-1.176-0.78-1.176-1.722v-3.02h-1.013v-0.546h1.013v-1.247l0.639-0.223
		v1.47h1.176V30.147z"/>
	<path style="fill:#FFFFFF;" d="M162.006,28.223h-0.639v-0.852h0.639V28.223z M161.367,29.601h0.639v5.167h-0.639V29.601z"/>
	<path style="fill:#FFFFFF;" d="M166.981,34.606c-0.445,0.182-1.023,0.283-1.499,0.283c-1.713,0-2.352-1.154-2.352-2.705
		c0-1.581,0.872-2.705,2.179-2.705c1.46,0,2.058,1.175,2.058,2.563v0.324h-3.537c0,1.095,0.588,1.976,1.703,1.976
		c0.466,0,1.144-0.192,1.448-0.386V34.606z M166.668,31.819c0-0.901-0.364-1.793-1.316-1.793c-0.943,0-1.521,0.943-1.521,1.793
		H166.668z"/>
	<path style="fill:#FFFFFF;" d="M168.09,34.019c0.385,0.192,0.851,0.324,1.347,0.324c0.608,0,1.146-0.334,1.146-0.922
		c0-1.227-2.482-1.033-2.482-2.533c0-1.024,0.832-1.408,1.683-1.408c0.273,0,0.821,0.061,1.275,0.232l-0.061,0.558
		c-0.334-0.151-0.79-0.244-1.144-0.244c-0.659,0-1.115,0.203-1.115,0.861c0,0.963,2.543,0.841,2.543,2.533
		c0,1.094-1.023,1.469-1.804,1.469c-0.497,0-0.993-0.061-1.449-0.243L168.09,34.019z"/>
	<path style="fill:#FFFFFF;" d="M175.136,27.695h1.823c1.257,0,2.078,0.537,2.078,1.835c0,0.913-0.701,1.52-1.57,1.631v0.02
		c0.566,0.071,0.688,0.375,0.91,0.852l1.206,2.735h-0.77l-1.024-2.392c-0.403-0.911-0.708-0.941-1.376-0.941h-0.579v3.333h-0.698
		V27.695z M175.834,30.827h0.74c0.82,0,1.762-0.314,1.762-1.297c0-1.155-0.818-1.226-1.78-1.226h-0.722V30.827z"/>
	<path style="fill:#FFFFFF;" d="M184.044,34.606c-0.445,0.182-1.023,0.283-1.499,0.283c-1.713,0-2.35-1.154-2.35-2.705
		c0-1.581,0.87-2.705,2.177-2.705c1.46,0,2.058,1.175,2.058,2.563v0.324h-3.537c0,1.095,0.588,1.976,1.703,1.976
		c0.466,0,1.145-0.192,1.448-0.386V34.606z M183.73,31.819c0-0.901-0.364-1.793-1.316-1.793c-0.943,0-1.521,0.943-1.521,1.793
		H183.73z"/>
	<path style="fill:#FFFFFF;" d="M185.152,34.019c0.385,0.192,0.851,0.324,1.347,0.324c0.608,0,1.146-0.334,1.146-0.922
		c0-1.227-2.482-1.033-2.482-2.533c0-1.024,0.832-1.408,1.681-1.408c0.274,0,0.823,0.061,1.277,0.232l-0.06,0.558
		c-0.335-0.151-0.791-0.244-1.145-0.244c-0.659,0-1.115,0.203-1.115,0.861c0,0.963,2.543,0.841,2.543,2.533
		c0,1.094-1.023,1.469-1.804,1.469c-0.497,0-0.993-0.061-1.449-0.243L185.152,34.019z"/>
	<path style="fill:#FFFFFF;" d="M192.855,34.606c-0.445,0.182-1.023,0.283-1.501,0.283c-1.711,0-2.35-1.154-2.35-2.705
		c0-1.581,0.871-2.705,2.179-2.705c1.46,0,2.057,1.175,2.057,2.563v0.324h-3.537c0,1.095,0.588,1.976,1.704,1.976
		c0.466,0,1.144-0.192,1.448-0.386V34.606z M192.54,31.819c0-0.901-0.364-1.793-1.315-1.793c-0.942,0-1.521,0.943-1.521,1.793
		H192.54z"/>
	<path style="fill:#FFFFFF;" d="M197.326,33.937h-0.022c-0.283,0.618-1.003,0.952-1.64,0.952c-1.469,0-1.703-0.993-1.703-1.459
		c0-1.732,1.845-1.813,3.182-1.813h0.122v-0.264c0-0.881-0.314-1.328-1.176-1.328c-0.537,0-1.043,0.122-1.518,0.426v-0.618
		c0.395-0.192,1.061-0.354,1.518-0.354c1.277,0,1.814,0.577,1.814,1.924v2.281c0,0.414,0,0.729,0.051,1.083h-0.629V33.937z
		 M197.266,32.165h-0.183c-1.104,0-2.421,0.111-2.421,1.246c0,0.678,0.486,0.932,1.072,0.932c1.501,0,1.531-1.307,1.531-1.865
		V32.165z"/>
	<path style="fill:#FFFFFF;" d="M199.326,30.756c0-0.568,0-0.78-0.041-1.155h0.639v0.993h0.02c0.232-0.579,0.669-1.115,1.328-1.115
		c0.149,0,0.332,0.029,0.444,0.061v0.668c-0.131-0.039-0.304-0.061-0.466-0.061c-1.012,0-1.286,1.135-1.286,2.067v2.553h-0.639
		V30.756z"/>
	<path style="fill:#FFFFFF;" d="M205.782,30.289c-0.344-0.151-0.759-0.263-1.105-0.263c-1.245,0-1.944,0.902-1.944,2.158
		c0,1.176,0.708,2.159,1.873,2.159c0.405,0,0.781-0.092,1.166-0.233l0.061,0.599c-0.436,0.152-0.842,0.181-1.326,0.181
		c-1.663,0-2.474-1.266-2.474-2.705c0-1.59,1.023-2.705,2.554-2.705c0.618,0,1.063,0.142,1.246,0.202L205.782,30.289z"/>
	<path style="fill:#FFFFFF;" d="M206.816,27.169h0.639v3.303h0.021c0.271-0.568,0.85-0.993,1.611-0.993
		c1.388,0,1.764,0.922,1.764,2.198v3.09h-0.639v-3.079c0-0.892-0.173-1.663-1.227-1.663c-1.135,0-1.531,1.074-1.531,1.976v2.766
		h-0.639V27.169z"/>
	<path style="fill:#FFFFFF;" d="M219.995,28.486c-0.447-0.233-1.086-0.304-1.582-0.304c-1.833,0-2.868,1.297-2.868,3.049
		c0,1.783,1.004,3.05,2.868,3.05c0.466,0,1.177-0.062,1.582-0.305l0.039,0.608c-0.385,0.233-1.176,0.303-1.621,0.303
		c-2.23,0-3.566-1.469-3.566-3.657c0-2.148,1.379-3.658,3.566-3.658c0.416,0,1.257,0.07,1.621,0.263L219.995,28.486z"/>
	<path style="fill:#FFFFFF;" d="M223.746,29.479c1.672,0,2.412,1.297,2.412,2.705c0,1.408-0.74,2.705-2.412,2.705
		s-2.412-1.297-2.412-2.705C221.334,30.776,222.074,29.479,223.746,29.479z M223.746,34.343c1.115,0,1.713-0.963,1.713-2.159
		s-0.598-2.158-1.713-2.158c-1.114,0-1.713,0.962-1.713,2.158S222.632,34.343,223.746,34.343z"/>
	<path style="fill:#FFFFFF;" d="M231.299,33.552c0,0.396,0,0.8,0.039,1.216h-0.617v-0.921h-0.021
		c-0.212,0.466-0.597,1.043-1.671,1.043c-1.275,0-1.763-0.851-1.763-1.986v-3.302h0.639v3.141c0,0.972,0.344,1.601,1.225,1.601
		c1.167,0,1.531-1.023,1.531-1.885v-2.856h0.639V33.552z"/>
	<path style="fill:#FFFFFF;" d="M232.802,30.817c0-0.396,0-0.802-0.042-1.216h0.618v0.921h0.02c0.215-0.466,0.598-1.043,1.672-1.043
		c1.277,0,1.764,0.85,1.764,1.986v3.302h-0.639v-3.141c0-0.973-0.346-1.601-1.227-1.601c-1.164,0-1.528,1.024-1.528,1.884v2.857
		h-0.639V30.817z"/>
	<path style="fill:#FFFFFF;" d="M241.701,30.289c-0.344-0.151-0.759-0.263-1.104-0.263c-1.247,0-1.946,0.902-1.946,2.158
		c0,1.176,0.71,2.159,1.875,2.159c0.405,0,0.779-0.092,1.166-0.233l0.061,0.599c-0.437,0.152-0.842,0.181-1.328,0.181
		c-1.661,0-2.472-1.266-2.472-2.705c0-1.59,1.024-2.705,2.552-2.705c0.618,0,1.065,0.142,1.248,0.202L241.701,30.289z"/>
	<path style="fill:#FFFFFF;" d="M243.374,28.223h-0.639v-0.852h0.639V28.223z M242.735,29.601h0.639v5.167h-0.639V29.601z"/>
	<path style="fill:#FFFFFF;" d="M244.887,27.169h0.639v7.599h-0.639V27.169z"/>
	<path style="fill:#FFFFFF;" d="M127.871,46.307h-0.02c-0.284,0.617-1.003,0.952-1.642,0.952c-1.468,0-1.703-0.993-1.703-1.46
		c0-1.733,1.845-1.813,3.183-1.813h0.122v-0.264c0-0.881-0.315-1.327-1.176-1.327c-0.537,0-1.043,0.122-1.519,0.425v-0.618
		c0.394-0.192,1.063-0.354,1.519-0.354c1.277,0,1.814,0.578,1.814,1.925v2.28c0,0.415,0,0.73,0.05,1.084h-0.628V46.307z
		 M127.81,44.532h-0.183c-1.104,0-2.422,0.112-2.422,1.248c0,0.678,0.487,0.932,1.074,0.932c1.499,0,1.531-1.307,1.531-1.865V44.532
		z"/>
	<path style="fill:#FFFFFF;" d="M129.87,43.185c0-0.395,0-0.801-0.042-1.216h0.619v0.922h0.02c0.215-0.466,0.598-1.044,1.672-1.044
		c1.276,0,1.763,0.852,1.763,1.986v3.304h-0.638v-3.142c0-0.973-0.346-1.601-1.227-1.601c-1.165,0-1.529,1.023-1.529,1.884v2.858
		h-0.639V43.185z"/>
	<path style="fill:#FFFFFF;" d="M139.498,47.137h-0.637v-0.82h-0.021c-0.346,0.658-0.871,0.942-1.611,0.942
		c-1.418,0-2.128-1.176-2.128-2.705c0-1.572,0.608-2.707,2.128-2.707c1.012,0,1.52,0.74,1.611,0.993h0.021v-3.304h0.637V47.137z
		 M137.331,46.712c1.134,0,1.53-1.217,1.53-2.158c0-0.943-0.396-2.159-1.53-2.159c-1.216,0-1.531,1.155-1.531,2.159
		C135.8,45.557,136.115,46.712,137.331,46.712z"/>
	<path style="fill:#FFFFFF;" d="M143.597,41.969h0.639l-0.041,0.943h0.021c0.161-0.285,0.558-1.064,1.65-1.064
		c1.521,0,2.129,1.134,2.129,2.707c0,1.529-0.708,2.705-2.129,2.705c-0.81,0-1.296-0.335-1.609-1.004h-0.02v3.009h-0.639V41.969z
		 M145.765,42.395c-1.135,0-1.529,1.216-1.529,2.159c0,0.941,0.395,2.158,1.529,2.158c1.215,0,1.53-1.155,1.53-2.158
		C147.295,43.549,146.979,42.395,145.765,42.395z"/>
	<path style="fill:#FFFFFF;" d="M153.225,45.921c0,0.396,0,0.8,0.042,1.216h-0.618v-0.922h-0.02
		c-0.213,0.467-0.598,1.044-1.672,1.044c-1.277,0-1.762-0.852-1.762-1.987v-3.303h0.639v3.142c0,0.973,0.342,1.601,1.225,1.601
		c1.166,0,1.528-1.024,1.528-1.886v-2.857h0.639V45.921z"/>
	<path style="fill:#FFFFFF;" d="M154.667,39.537h0.639v3.304h0.021c0.092-0.253,0.597-0.993,1.611-0.993
		c1.52,0,2.126,1.134,2.126,2.707c0,1.529-0.708,2.705-2.126,2.705c-0.74,0-1.268-0.284-1.611-0.942h-0.021v0.82h-0.639V39.537z
		 M156.837,42.395c-1.166,0-1.531,1.216-1.531,2.159c0,0.941,0.396,2.158,1.531,2.158c1.215,0,1.529-1.155,1.529-2.158
		C158.366,43.549,158.052,42.395,156.837,42.395z"/>
	<path style="fill:#FFFFFF;" d="M160.265,39.537h0.639v7.6h-0.639V39.537z"/>
	<path style="fill:#FFFFFF;" d="M163.052,40.591h-0.638V39.74h0.638V40.591z M162.414,41.969h0.638v5.168h-0.638V41.969z"/>
	<path style="fill:#FFFFFF;" d="M167.929,42.658c-0.346-0.153-0.761-0.264-1.105-0.264c-1.247,0-1.946,0.901-1.946,2.159
		c0,1.175,0.71,2.158,1.875,2.158c0.405,0,0.779-0.092,1.166-0.233l0.061,0.599c-0.436,0.15-0.842,0.182-1.328,0.182
		c-1.663,0-2.472-1.268-2.472-2.705c0-1.592,1.023-2.707,2.552-2.707c0.618,0,1.065,0.142,1.248,0.203L167.929,42.658z"/>
	<path style="fill:#FFFFFF;" d="M172.117,42.516h-1.045v-0.547h1.045v-0.375c0-1.085,0.039-2.179,1.367-2.179
		c0.203,0,0.476,0.032,0.598,0.102l-0.04,0.557c-0.133-0.071-0.325-0.111-0.509-0.111c-0.87,0-0.779,0.942-0.779,1.56v0.446h1.166
		v0.547h-1.166v4.621h-0.637V42.516z"/>
	<path style="fill:#FFFFFF;" d="M178.986,45.921c0,0.396,0,0.8,0.041,1.216h-0.618v-0.922h-0.02
		c-0.212,0.467-0.598,1.044-1.672,1.044c-1.277,0-1.764-0.852-1.764-1.987v-3.303h0.639v3.142c0,0.973,0.344,1.601,1.227,1.601
		c1.165,0,1.529-1.024,1.529-1.886v-2.857h0.639V45.921z"/>
	<path style="fill:#FFFFFF;" d="M180.488,43.185c0-0.395,0-0.801-0.039-1.216h0.618v0.922h0.02c0.212-0.466,0.598-1.044,1.672-1.044
		c1.275,0,1.764,0.852,1.764,1.986v3.304h-0.639v-3.142c0-0.973-0.346-1.601-1.227-1.601c-1.165,0-1.531,1.023-1.531,1.884v2.858
		h-0.639V43.185z"/>
	<path style="fill:#FFFFFF;" d="M190.119,47.137h-0.639v-0.82h-0.021c-0.344,0.658-0.871,0.942-1.611,0.942
		c-1.418,0-2.126-1.176-2.126-2.705c0-1.572,0.606-2.707,2.126-2.707c1.015,0,1.521,0.74,1.611,0.993h0.021v-3.304h0.639V47.137z
		 M187.949,46.712c1.137,0,1.531-1.217,1.531-2.158c0-0.943-0.395-2.159-1.531-2.159c-1.215,0-1.529,1.155-1.529,2.159
		C186.42,45.557,186.734,46.712,187.949,46.712z"/>
	<path style="fill:#FFFFFF;" d="M192.2,40.591h-0.639V39.74h0.639V40.591z M191.561,41.969h0.639v5.168h-0.639V41.969z"/>
	<path style="fill:#FFFFFF;" d="M193.71,43.185c0-0.395,0-0.801-0.041-1.216h0.618v0.922h0.021c0.212-0.466,0.597-1.044,1.672-1.044
		c1.276,0,1.764,0.852,1.764,1.986v3.304h-0.639v-3.142c0-0.973-0.346-1.601-1.227-1.601c-1.167,0-1.529,1.023-1.529,1.884v2.858
		h-0.639V43.185z"/>
	<path style="fill:#FFFFFF;" d="M203.338,46.712c0,1.438-0.647,2.613-2.421,2.613c-0.678,0-1.298-0.192-1.561-0.273l0.051-0.639
		c0.395,0.203,0.963,0.365,1.52,0.365c1.642,0,1.784-1.196,1.784-2.654h-0.02c-0.346,0.749-0.913,1.013-1.57,1.013
		c-1.653,0-2.179-1.438-2.179-2.583c0-1.572,0.607-2.707,2.128-2.707c0.689,0,1.135,0.092,1.611,0.708h0.018v-0.587h0.639V46.712z
		 M201.129,46.59c1.155,0,1.57-1.095,1.57-2.036c0-1.248-0.364-2.159-1.528-2.159c-1.216,0-1.531,1.155-1.531,2.159
		C199.64,45.566,200.046,46.59,201.129,46.59z"/>
	<path style="fill:#FFFFFF;" d="M207.436,39.537h0.639v3.304h0.02c0.091-0.253,0.598-0.993,1.612-0.993
		c1.52,0,2.128,1.134,2.128,2.707c0,1.529-0.71,2.705-2.128,2.705c-0.74,0-1.268-0.284-1.612-0.942h-0.02v0.82h-0.639V39.537z
		 M209.606,42.395c-1.167,0-1.531,1.216-1.531,2.159c0,0.941,0.395,2.158,1.531,2.158c1.215,0,1.528-1.155,1.528-2.158
		C211.135,43.549,210.821,42.395,209.606,42.395z"/>
	<path style="fill:#FFFFFF;" d="M214.471,46.274h0.012l1.489-4.306h0.669l-2.066,5.938c-0.244,0.709-0.61,1.418-1.328,1.418
		c-0.232,0-0.477-0.03-0.689-0.081l0.061-0.546c0.122,0.04,0.242,0.08,0.477,0.08c0.547,0,0.729-0.456,0.932-1.125l0.132-0.456
		l-1.833-5.229h0.698L214.471,46.274z"/>
	<path style="fill:#FFFFFF;" d="M222.379,42.516h-1.176v3.344c0,0.465,0.173,0.851,0.689,0.851c0.244,0,0.405-0.051,0.588-0.122
		l0.039,0.526c-0.15,0.062-0.466,0.143-0.779,0.143c-1.135,0-1.176-0.78-1.176-1.723v-3.02h-1.013v-0.547h1.013v-1.247l0.639-0.222
		v1.469h1.176V42.516z"/>
	<path style="fill:#FFFFFF;" d="M223.423,39.537h0.639v3.304h0.021c0.272-0.567,0.852-0.993,1.612-0.993
		c1.388,0,1.762,0.922,1.762,2.199v3.09h-0.639v-3.081c0-0.892-0.171-1.662-1.225-1.662c-1.135,0-1.531,1.074-1.531,1.977v2.766
		h-0.639V39.537z"/>
	<path style="fill:#FFFFFF;" d="M232.424,46.975c-0.445,0.183-1.023,0.284-1.499,0.284c-1.713,0-2.35-1.155-2.35-2.705
		c0-1.582,0.87-2.707,2.177-2.707c1.46,0,2.057,1.175,2.057,2.564v0.324h-3.534c0,1.095,0.588,1.976,1.701,1.976
		c0.466,0,1.145-0.193,1.448-0.387V46.975z M232.11,44.188c0-0.902-0.364-1.793-1.316-1.793c-0.943,0-1.52,0.942-1.52,1.793H232.11z
		"/>
	<path style="fill:#FFFFFF;" d="M124.881,52.433h0.882l3.597,6.222h0.021v-6.222h0.7v7.072h-0.943l-3.537-6.1h-0.021v6.1h-0.699
		V52.433z"/>
	<path style="fill:#FFFFFF;" d="M134.53,58.675h-0.021c-0.282,0.617-1.004,0.952-1.64,0.952c-1.469,0-1.704-0.993-1.704-1.46
		c0-1.732,1.844-1.813,3.181-1.813h0.123V56.09c0-0.881-0.314-1.327-1.177-1.327c-0.537,0-1.042,0.122-1.519,0.426v-0.617
		c0.395-0.193,1.063-0.355,1.519-0.355c1.277,0,1.814,0.578,1.814,1.925v2.281c0,0.415,0,0.728,0.051,1.083h-0.629V58.675z
		 M134.471,56.901h-0.184c-1.104,0-2.42,0.11-2.42,1.245c0,0.679,0.484,0.934,1.072,0.934c1.498,0,1.531-1.308,1.531-1.865V56.901z"
		/>
	<path style="fill:#FFFFFF;" d="M138.758,54.885h-1.174v3.344c0,0.465,0.171,0.852,0.689,0.852c0.242,0,0.404-0.052,0.588-0.122
		l0.04,0.526c-0.152,0.06-0.466,0.143-0.78,0.143c-1.136,0-1.176-0.78-1.176-1.722v-3.021h-1.014v-0.547h1.014v-1.247l0.639-0.224
		v1.471h1.174V54.885z"/>
	<path style="fill:#FFFFFF;" d="M140.443,52.961h-0.639v-0.854h0.639V52.961z M139.805,54.338h0.639v5.167h-0.639V54.338z"/>
	<path style="fill:#FFFFFF;" d="M143.969,54.216c1.672,0,2.411,1.298,2.411,2.705c0,1.408-0.739,2.706-2.411,2.706
		c-1.672,0-2.412-1.298-2.412-2.706C141.557,55.514,142.297,54.216,143.969,54.216z M143.969,59.08c1.113,0,1.713-0.963,1.713-2.159
		c0-1.195-0.6-2.158-1.713-2.158c-1.116,0-1.713,0.963-1.713,2.158C142.256,58.117,142.852,59.08,143.969,59.08z"/>
	<path style="fill:#FFFFFF;" d="M147.488,55.555c0-0.396,0-0.801-0.041-1.217h0.618v0.921h0.02c0.212-0.465,0.598-1.043,1.672-1.043
		c1.277,0,1.764,0.852,1.764,1.985v3.304h-0.639v-3.141c0-0.973-0.346-1.602-1.227-1.602c-1.167,0-1.529,1.024-1.529,1.885v2.857
		h-0.639V55.555z"/>
	<path style="fill:#FFFFFF;" d="M155.991,58.675h-0.018c-0.283,0.617-1.005,0.952-1.642,0.952c-1.469,0-1.703-0.993-1.703-1.46
		c0-1.732,1.844-1.813,3.182-1.813h0.122V56.09c0-0.881-0.315-1.327-1.174-1.327c-0.539,0-1.045,0.122-1.521,0.426v-0.617
		c0.395-0.193,1.064-0.355,1.521-0.355c1.275,0,1.813,0.578,1.813,1.925v2.281c0,0.415,0,0.728,0.051,1.083h-0.63V58.675z
		 M155.932,56.901h-0.183c-1.104,0-2.423,0.11-2.423,1.245c0,0.679,0.488,0.934,1.074,0.934c1.499,0,1.531-1.308,1.531-1.865V56.901
		z"/>
	<path style="fill:#FFFFFF;" d="M157.992,51.905h0.639v7.6h-0.639V51.905z"/>
	<path style="fill:#FFFFFF;" d="M162.866,52.433h0.7v6.466h2.837v0.607h-3.537V52.433z"/>
	<path style="fill:#FFFFFF;" d="M169.273,54.216c1.672,0,2.411,1.298,2.411,2.705c0,1.408-0.739,2.706-2.411,2.706
		c-1.672,0-2.412-1.298-2.412-2.706C166.861,55.514,167.602,54.216,169.273,54.216z M169.273,59.08c1.115,0,1.713-0.963,1.713-2.159
		c0-1.195-0.598-2.158-1.713-2.158c-1.116,0-1.713,0.963-1.713,2.158C167.561,58.117,168.157,59.08,169.273,59.08z"/>
	<path style="fill:#FFFFFF;" d="M175.022,54.885h-1.178v3.344c0,0.465,0.173,0.852,0.691,0.852c0.242,0,0.404-0.052,0.588-0.122
		l0.04,0.526c-0.152,0.06-0.467,0.143-0.78,0.143c-1.136,0-1.176-0.78-1.176-1.722v-3.021h-1.014v-0.547h1.014v-1.247l0.637-0.224
		v1.471h1.178V54.885z"/>
	<path style="fill:#FFFFFF;" d="M178.295,54.885h-1.176v3.344c0,0.465,0.173,0.852,0.689,0.852c0.244,0,0.405-0.052,0.588-0.122
		l0.041,0.526c-0.152,0.06-0.466,0.143-0.781,0.143c-1.135,0-1.174-0.78-1.174-1.722v-3.021h-1.015v-0.547h1.015v-1.247l0.637-0.224
		v1.471h1.176V54.885z"/>
	<path style="fill:#FFFFFF;" d="M182.805,59.342c-0.445,0.183-1.022,0.285-1.499,0.285c-1.713,0-2.35-1.154-2.35-2.706
		c0-1.58,0.871-2.705,2.177-2.705c1.46,0,2.057,1.176,2.057,2.564v0.323h-3.535c0,1.095,0.588,1.977,1.702,1.977
		c0.468,0,1.146-0.193,1.448-0.387V59.342z M182.491,56.557c0-0.901-0.364-1.794-1.317-1.794c-0.942,0-1.52,0.943-1.52,1.794
		H182.491z"/>
	<path style="fill:#FFFFFF;" d="M184.308,55.493c0-0.568,0-0.781-0.04-1.155h0.639v0.993h0.02c0.233-0.577,0.669-1.115,1.326-1.115
		c0.152,0,0.335,0.029,0.447,0.062v0.668c-0.132-0.04-0.305-0.061-0.466-0.061c-1.015,0-1.288,1.135-1.288,2.066v2.554h-0.639
		V55.493z"/>
	<path style="fill:#FFFFFF;" d="M189.021,58.644h0.01l1.489-4.306h0.669l-2.066,5.938c-0.244,0.709-0.608,1.419-1.328,1.419
		c-0.232,0-0.475-0.031-0.689-0.081l0.061-0.547c0.122,0.039,0.244,0.08,0.477,0.08c0.547,0,0.731-0.456,0.932-1.125l0.134-0.456
		l-1.835-5.228h0.7L189.021,58.644z"/>
	<path style="fill:#FFFFFF;" d="M196.928,54.885h-1.174v3.344c0,0.465,0.171,0.852,0.688,0.852c0.244,0,0.405-0.052,0.59-0.122
		l0.039,0.526c-0.152,0.06-0.466,0.143-0.779,0.143c-1.137,0-1.176-0.78-1.176-1.722v-3.021h-1.015v-0.547h1.015v-1.247l0.639-0.224
		v1.471h1.174V54.885z"/>
	<path style="fill:#FFFFFF;" d="M197.974,51.905h0.639v3.304h0.021c0.272-0.567,0.852-0.993,1.61-0.993
		c1.388,0,1.764,0.923,1.764,2.198v3.091h-0.639v-3.08c0-0.891-0.173-1.662-1.227-1.662c-1.135,0-1.529,1.074-1.529,1.977v2.766
		h-0.639V51.905z"/>
	<path style="fill:#FFFFFF;" d="M203.509,55.493c0-0.568,0-0.781-0.041-1.155h0.639v0.993h0.021
		c0.233-0.577,0.669-1.115,1.328-1.115c0.15,0,0.332,0.029,0.445,0.062v0.668c-0.132-0.04-0.305-0.061-0.466-0.061
		c-1.013,0-1.287,1.135-1.287,2.066v2.554h-0.639V55.493z"/>
	<path style="fill:#FFFFFF;" d="M208.616,54.216c1.674,0,2.412,1.298,2.412,2.705c0,1.408-0.738,2.706-2.412,2.706
		c-1.672,0-2.412-1.298-2.412-2.706C206.204,55.514,206.944,54.216,208.616,54.216z M208.616,59.08c1.116,0,1.713-0.963,1.713-2.159
		c0-1.195-0.597-2.158-1.713-2.158c-1.114,0-1.713,0.963-1.713,2.158C206.903,58.117,207.502,59.08,208.616,59.08z"/>
	<path style="fill:#FFFFFF;" d="M216.169,58.288c0,0.396,0,0.802,0.039,1.217h-0.615v-0.922h-0.021
		c-0.214,0.466-0.599,1.044-1.671,1.044c-1.277,0-1.764-0.852-1.764-1.985v-3.304h0.638v3.141c0,0.974,0.344,1.602,1.227,1.602
		c1.165,0,1.529-1.024,1.529-1.886v-2.856h0.639V58.288z"/>
	<path style="fill:#FFFFFF;" d="M221.765,59.08c0,1.438-0.648,2.614-2.421,2.614c-0.679,0-1.297-0.193-1.562-0.274l0.053-0.638
		c0.394,0.202,0.962,0.364,1.519,0.364c1.64,0,1.782-1.195,1.782-2.655h-0.02c-0.346,0.75-0.911,1.014-1.57,1.014
		c-1.65,0-2.179-1.44-2.179-2.584c0-1.571,0.608-2.705,2.128-2.705c0.689,0,1.135,0.092,1.612,0.709h0.021v-0.587h0.637V59.08z
		 M219.556,58.958c1.155,0,1.572-1.094,1.572-2.037c0-1.247-0.366-2.158-1.531-2.158c-1.215,0-1.53,1.154-1.53,2.158
		C218.066,57.935,218.472,58.958,219.556,58.958z"/>
	<path style="fill:#FFFFFF;" d="M223.207,51.905h0.639v3.304h0.019c0.274-0.567,0.853-0.993,1.613-0.993
		c1.389,0,1.762,0.923,1.762,2.198v3.091h-0.638v-3.08c0-0.891-0.173-1.662-1.226-1.662c-1.134,0-1.53,1.074-1.53,1.977v2.766
		h-0.639V51.905z"/>
	<path style="fill:#FFFFFF;" d="M127.131,64.801h0.79l2.808,7.073h-0.731l-0.759-1.895h-3.566l-0.76,1.895h-0.679L127.131,64.801z
		 M127.475,65.47l-1.539,3.901h3.07L127.475,65.47z"/>
	<path style="fill:#FFFFFF;" d="M131.563,67.861c0-0.569,0-0.781-0.042-1.155h0.639V67.7h0.02c0.233-0.579,0.669-1.116,1.325-1.116
		c0.152,0,0.335,0.03,0.447,0.062v0.667c-0.131-0.039-0.304-0.059-0.467-0.059c-1.013,0-1.285,1.133-1.285,2.066v2.554h-0.639
		V67.861z"/>
	<path style="fill:#FFFFFF;" d="M137.065,67.254h-1.176v3.342c0,0.466,0.171,0.852,0.689,0.852c0.242,0,0.404-0.05,0.588-0.122
		l0.04,0.527c-0.152,0.062-0.466,0.141-0.78,0.141c-1.134,0-1.176-0.778-1.176-1.721v-3.02h-1.013v-0.548h1.013v-1.247l0.639-0.222
		v1.469h1.176V67.254z"/>
	<path style="fill:#FFFFFF;" d="M137.716,71.123c0.385,0.193,0.851,0.325,1.347,0.325c0.608,0,1.144-0.335,1.144-0.923
		c0-1.226-2.482-1.034-2.482-2.533c0-1.023,0.831-1.408,1.684-1.408c0.272,0,0.818,0.062,1.275,0.232l-0.061,0.558
		c-0.334-0.15-0.79-0.241-1.146-0.241c-0.657,0-1.114,0.2-1.114,0.859c0,0.962,2.544,0.841,2.544,2.533
		c0,1.095-1.024,1.469-1.804,1.469c-0.496,0-0.993-0.061-1.45-0.243L137.716,71.123z"/>
	<path style="fill:#FFFFFF;" d="M149.594,65.592c-0.444-0.233-1.085-0.304-1.581-0.304c-1.833,0-2.868,1.296-2.868,3.05
		c0,1.783,1.005,3.049,2.868,3.049c0.466,0,1.176-0.061,1.581-0.305l0.04,0.609c-0.386,0.232-1.174,0.303-1.621,0.303
		c-2.229,0-3.567-1.469-3.567-3.656c0-2.148,1.379-3.658,3.567-3.658c0.417,0,1.257,0.071,1.621,0.263L149.594,65.592z"/>
	<path style="fill:#FFFFFF;" d="M153.345,66.584c1.672,0,2.412,1.298,2.412,2.706c0,1.408-0.74,2.704-2.412,2.704
		c-1.671,0-2.411-1.296-2.411-2.704C150.934,67.882,151.674,66.584,153.345,66.584z M153.345,71.448
		c1.116,0,1.714-0.963,1.714-2.158c0-1.196-0.598-2.157-1.714-2.157c-1.113,0-1.711,0.961-1.711,2.157
		C151.634,70.485,152.231,71.448,153.345,71.448z"/>
	<path style="fill:#FFFFFF;" d="M160.897,70.658c0,0.394,0,0.799,0.042,1.216h-0.618v-0.922h-0.02
		c-0.215,0.466-0.598,1.042-1.672,1.042c-1.277,0-1.764-0.851-1.764-1.985v-3.303h0.639v3.141c0,0.973,0.344,1.601,1.227,1.601
		c1.164,0,1.528-1.025,1.528-1.885v-2.857h0.639V70.658z"/>
	<path style="fill:#FFFFFF;" d="M162.4,67.922c0-0.395,0-0.801-0.039-1.216h0.617v0.922H163c0.212-0.467,0.597-1.044,1.671-1.044
		c1.275,0,1.763,0.852,1.763,1.985v3.305h-0.639v-3.143c0-0.973-0.344-1.599-1.225-1.599c-1.167,0-1.531,1.022-1.531,1.884v2.857
		H162.4V67.922z"/>
	<path style="fill:#FFFFFF;" d="M171.3,67.395c-0.344-0.152-0.759-0.262-1.104-0.262c-1.245,0-1.944,0.899-1.944,2.157
		c0,1.175,0.709,2.158,1.875,2.158c0.403,0,0.779-0.092,1.164-0.232l0.061,0.597c-0.436,0.153-0.842,0.182-1.326,0.182
		c-1.662,0-2.472-1.266-2.472-2.704c0-1.59,1.024-2.706,2.553-2.706c0.618,0,1.064,0.143,1.245,0.203L171.3,67.395z"/>
	<path style="fill:#FFFFFF;" d="M172.976,65.328h-0.639v-0.852h0.639V65.328z M172.337,66.706h0.639v5.168h-0.639V66.706z"/>
	<path style="fill:#FFFFFF;" d="M174.483,64.274h0.641v7.6h-0.641V64.274z"/>
	<path style="fill:#FFFFFF;" d="M179.422,64.801h3.465v0.608h-2.767v2.522h2.624v0.608h-2.624v2.726h2.89v0.608h-3.588V64.801z"/>
	<path style="fill:#FFFFFF;" d="M184.318,67.922c0-0.395,0-0.801-0.039-1.216h0.618v0.922h0.021
		c0.212-0.467,0.597-1.044,1.671-1.044c1.275,0,1.763,0.852,1.763,1.985v3.305h-0.639v-3.143c0-0.973-0.344-1.599-1.225-1.599
		c-1.167,0-1.531,1.022-1.531,1.884v2.857h-0.639V67.922z"/>
	<path style="fill:#FFFFFF;" d="M193.948,71.448c0,1.44-0.649,2.614-2.421,2.614c-0.68,0-1.298-0.193-1.561-0.273l0.051-0.64
		c0.395,0.203,0.961,0.364,1.52,0.364c1.642,0,1.782-1.195,1.782-2.652h-0.02c-0.344,0.748-0.911,1.013-1.57,1.013
		c-1.651,0-2.177-1.439-2.177-2.584c0-1.571,0.606-2.706,2.126-2.706c0.69,0,1.137,0.091,1.611,0.708h0.021v-0.586h0.639V71.448z
		 M191.739,71.326c1.155,0,1.57-1.095,1.57-2.036c0-1.247-0.364-2.157-1.53-2.157c-1.216,0-1.529,1.154-1.529,2.157
		C190.25,70.303,190.654,71.326,191.739,71.326z"/>
	<path style="fill:#FFFFFF;" d="M195.39,64.274h0.639v7.6h-0.639V64.274z"/>
	<path style="fill:#FFFFFF;" d="M200.51,71.043h-0.021c-0.284,0.617-1.004,0.951-1.642,0.951c-1.47,0-1.704-0.992-1.704-1.459
		c0-1.731,1.845-1.813,3.183-1.813h0.12v-0.264c0-0.882-0.314-1.326-1.174-1.326c-0.537,0-1.044,0.121-1.521,0.423v-0.616
		c0.395-0.194,1.065-0.355,1.521-0.355c1.275,0,1.813,0.577,1.813,1.925v2.28c0,0.416,0,0.729,0.051,1.085h-0.627V71.043z
		 M200.447,69.27h-0.182c-1.104,0-2.422,0.111-2.422,1.247c0,0.679,0.487,0.932,1.073,0.932c1.5,0,1.53-1.308,1.53-1.865V69.27z"/>
	<path style="fill:#FFFFFF;" d="M202.508,67.922c0-0.395,0-0.801-0.041-1.216h0.618v0.922h0.02c0.214-0.467,0.599-1.044,1.672-1.044
		c1.277,0,1.764,0.852,1.764,1.985v3.305h-0.639v-3.143c0-0.973-0.344-1.599-1.227-1.599c-1.165,0-1.529,1.022-1.529,1.884v2.857
		h-0.639V67.922z"/>
	<path style="fill:#FFFFFF;" d="M212.137,71.874h-0.638v-0.821h-0.02c-0.344,0.658-0.871,0.941-1.611,0.941
		c-1.418,0-2.128-1.175-2.128-2.704c0-1.571,0.608-2.706,2.128-2.706c1.013,0,1.52,0.74,1.611,0.993h0.02v-3.303h0.638V71.874z
		 M209.969,71.448c1.135,0,1.53-1.217,1.53-2.158s-0.395-2.157-1.53-2.157c-1.216,0-1.529,1.154-1.529,2.157
		C208.439,70.294,208.753,71.448,209.969,71.448z"/>
</g>
</svg>
